<svg width="1121" height="778" viewBox="0 0 1121 778" fill="none" xmlns="http://www.w3.org/2000/svg">
<path d="M212.592 167C247.938 167 276.592 138.346 276.592 103C276.592 67.6538 247.938 39 212.592 39C177.246 39 148.592 67.6538 148.592 103C148.592 138.346 177.246 167 212.592 167Z" fill="#69678E"/>
<path d="M523.977 343.122C523.977 494.133 434.203 546.861 323.461 546.861C212.719 546.861 122.945 494.133 122.945 343.122C122.945 192.11 323.461 0 323.461 0C323.461 0 523.977 192.11 523.977 343.122Z" fill="#6DCCA2"/>
<path d="M316.156 523.761L318.21 397.378L403.674 241.024L318.532 377.552L319.455 320.725L378.357 207.605L319.699 305.687L321.359 203.481L384.433 113.423L321.621 187.409L322.658 0L316.138 248.096L316.674 237.861L252.547 139.704L315.646 257.508L309.671 371.654L309.493 368.625L235.565 265.329L309.269 379.328L308.522 393.603L308.388 393.818L308.449 394.99L293.29 684.589H313.544L315.974 535.005L389.496 421.285L316.156 523.761Z" fill="#594F42"/>
<path d="M1120.59 404.972C1120.59 528.582 1047.11 571.742 956.461 571.742C865.813 571.742 792.329 528.582 792.329 404.972C792.329 281.362 956.461 124.11 956.461 124.11C956.461 124.11 1120.59 281.362 1120.59 404.972Z" fill="#6DCCA2"/>
<path d="M950.482 552.833L952.162 449.383L1022.12 321.4L952.426 433.154L953.182 386.639L1001.4 294.044L953.382 374.329L954.741 290.669L1006.37 216.952L954.954 277.514L955.804 124.11L950.467 327.188L950.906 318.811L898.414 238.464L950.064 334.893L945.173 428.327L945.027 425.847L884.514 341.294L944.844 434.608L944.232 446.293L944.123 446.469L944.173 447.428L931.764 684.478H948.343L950.332 562.037L1010.51 468.952L950.482 552.833Z" fill="#594F42"/>
<path d="M554.592 708.513C860.885 708.513 1109.18 695.962 1109.18 680.479C1109.18 664.996 860.885 652.444 554.592 652.444C248.299 652.444 0 664.996 0 680.479C0 695.962 248.299 708.513 554.592 708.513Z" fill="#69678E"/>
<path d="M892.445 731.598C944.905 731.598 987.433 729.449 987.433 726.797C987.433 724.145 944.905 721.995 892.445 721.995C839.984 721.995 797.456 724.145 797.456 726.797C797.456 729.449 839.984 731.598 892.445 731.598Z" fill="#69678E"/>
<path d="M548.72 777.916C601.181 777.916 643.709 775.766 643.709 773.114C643.709 770.462 601.181 768.312 548.72 768.312C496.259 768.312 453.731 770.462 453.731 773.114C453.731 775.766 496.259 777.916 548.72 777.916Z" fill="#69678E"/>
<path d="M287.944 745.249C407.798 745.249 504.958 740.337 504.958 734.279C504.958 728.22 407.798 723.309 287.944 723.309C168.09 723.309 70.9297 728.22 70.9297 734.279C70.9297 740.337 168.09 745.249 287.944 745.249Z" fill="#69678E"/>
<path d="M97.084 645.27C140.714 645.27 176.084 609.9 176.084 566.27C176.084 522.639 140.714 487.27 97.084 487.27C53.4535 487.27 18.084 522.639 18.084 566.27C18.084 609.9 53.4535 645.27 97.084 645.27Z" fill="#2F2E41"/>
<path d="M84.3538 628.125L60.3555 627.842L59.8488 670.839L83.8472 671.122L84.3538 628.125Z" fill="#2F2E41"/>
<path d="M132.351 628.69L108.353 628.407L107.846 671.404L131.844 671.687L132.351 628.69Z" fill="#2F2E41"/>
<path d="M99.8405 671.81C99.8893 667.668 90.9752 664.205 79.9302 664.075C68.8853 663.944 59.8921 667.197 59.8432 671.338C59.7944 675.48 68.7086 678.943 79.7535 679.074C90.7984 679.204 99.7917 675.952 99.8405 671.81Z" fill="#2F2E41"/>
<path d="M147.849 671.375C147.898 667.233 138.984 663.77 127.939 663.64C116.894 663.51 107.901 666.762 107.852 670.904C107.803 675.046 116.717 678.509 127.762 678.639C138.807 678.769 147.8 675.517 147.849 671.375Z" fill="#2F2E41"/>
<path d="M99.3193 573.295C114.231 573.295 126.319 561.207 126.319 546.295C126.319 531.383 114.231 519.295 99.3193 519.295C84.4076 519.295 72.3193 531.383 72.3193 546.295C72.3193 561.207 84.4076 573.295 99.3193 573.295Z" fill="white"/>
<path d="M99.3193 555.295C104.29 555.295 108.319 551.265 108.319 546.295C108.319 541.324 104.29 537.295 99.3193 537.295C94.3488 537.295 90.3193 541.324 90.3193 546.295C90.3193 551.265 94.3488 555.295 99.3193 555.295Z" fill="#3F3D56"/>
<path d="M21.3221 491.904C15.2803 463.263 36.0097 434.639 67.6226 427.97C99.2355 421.302 129.761 439.113 135.803 467.754C141.844 496.395 120.824 506.684 89.2114 513.353C57.5985 520.022 27.364 520.545 21.3221 491.904Z" fill="#6DCCA4"/>
<path d="M217.592 610.342C217.592 665.417 184.852 684.648 144.462 684.648C143.526 684.648 142.592 684.637 141.66 684.617C139.788 684.577 137.935 684.487 136.103 684.363C99.652 681.783 71.332 661.563 71.332 610.342C71.332 557.333 139.071 490.445 144.159 485.495L144.168 485.486C144.364 485.295 144.462 485.201 144.462 485.201C144.462 485.201 217.592 555.266 217.592 610.342Z" fill="#6DCCA4"/>
<path d="M141.798 676.223L168.545 638.85L141.731 680.327L141.66 684.618C139.789 684.577 137.935 684.488 136.104 684.364L138.987 629.261L138.964 628.833L139.013 628.753L139.285 623.549L112.404 581.969L139.37 619.646L139.432 620.751L141.611 579.118L118.598 536.152L141.892 571.81L144.159 485.496L144.168 485.202V485.487L143.79 553.551L166.7 526.568L143.696 559.415L143.09 596.691L164.482 560.916L143.001 602.175L142.662 622.898L173.718 573.107L142.547 630.13L141.798 676.223Z" fill="#594F42"/>
<path d="M712.485 644.415C756.116 644.415 791.485 609.046 791.485 565.415C791.485 521.785 756.116 486.415 712.485 486.415C668.855 486.415 633.485 521.785 633.485 565.415C633.485 609.046 668.855 644.415 712.485 644.415Z" fill="#2F2E41"/>
<path d="M719.228 628.205L696.287 635.255L708.919 676.358L731.86 669.307L719.228 628.205Z" fill="#2F2E41"/>
<path d="M765.109 614.109L742.168 621.159L754.8 662.262L777.741 655.212L765.109 614.109Z" fill="#2F2E41"/>
<path d="M730.386 678.13C740.945 674.885 748.517 669.045 747.301 665.086C746.084 661.126 736.538 660.547 725.98 663.792C715.422 667.037 707.849 672.877 709.066 676.836C710.282 680.795 719.828 681.375 730.386 678.13Z" fill="#2F2E41"/>
<path d="M775.975 663.073C786.534 659.828 794.106 653.988 792.89 650.029C791.673 646.069 782.127 645.49 771.569 648.735C761.01 651.98 753.438 657.82 754.654 661.779C755.871 665.739 765.417 666.318 775.975 663.073Z" fill="#2F2E41"/>
<path d="M708.521 572.71C723.433 572.71 735.521 560.622 735.521 545.71C735.521 530.798 723.433 518.71 708.521 518.71C693.61 518.71 681.521 530.798 681.521 545.71C681.521 560.622 693.61 572.71 708.521 572.71Z" fill="white"/>
<path d="M708.521 554.71C713.492 554.71 717.521 550.681 717.521 545.71C717.521 540.739 713.492 536.71 708.521 536.71C703.551 536.71 699.521 540.739 699.521 545.71C699.521 550.681 703.551 554.71 708.521 554.71Z" fill="#3F3D56"/>
<path d="M617.651 517.701C603.161 492.268 614.173 458.685 642.245 442.692C670.318 426.699 704.821 434.352 719.311 459.785C733.8 485.218 716.92 501.428 688.847 517.422C660.775 533.415 632.141 543.135 617.651 517.701Z" fill="#6DCCA4"/>
<path d="M571.592 600.257C571.592 650.814 541.538 668.467 504.462 668.467C503.603 668.467 502.746 668.457 501.889 668.438C500.172 668.401 498.47 668.319 496.789 668.205C463.328 665.837 437.332 647.276 437.332 600.257C437.332 551.598 499.513 490.198 504.184 485.654L504.192 485.646C504.372 485.47 504.462 485.384 504.462 485.384C504.462 485.384 571.592 549.7 571.592 600.257Z" fill="#6DCCA4"/>
<path d="M502.016 660.732L526.569 626.425L501.955 664.499L501.889 668.438C500.172 668.401 498.47 668.319 496.789 668.205L499.435 617.623L499.415 617.231L499.46 617.157L499.709 612.38L475.034 574.211L499.787 608.797L499.844 609.811L501.844 571.594L480.719 532.154L502.102 564.886L504.184 485.654L504.192 485.384V485.646L503.844 548.125L524.875 523.356L503.759 553.508L503.202 587.725L522.839 554.886L503.121 592.76L502.81 611.783L531.317 566.076L502.703 618.421L502.016 660.732Z" fill="#594F42"/>
<path d="M835.592 621.342C835.592 676.417 802.852 695.648 762.462 695.648C761.526 695.648 760.592 695.637 759.659 695.617C757.788 695.577 755.935 695.487 754.103 695.363C717.652 692.783 689.332 672.563 689.332 621.342C689.332 568.333 757.071 501.445 762.159 496.495L762.168 496.486C762.364 496.295 762.462 496.201 762.462 496.201C762.462 496.201 835.592 566.266 835.592 621.342Z" fill="#6DCCA4"/>
<path d="M759.798 687.223L786.545 649.85L759.731 691.327L759.66 695.618C757.789 695.577 755.935 695.488 754.104 695.364L756.987 640.261L756.964 639.833L757.013 639.753L757.285 634.549L730.404 592.969L757.37 630.646L757.432 631.751L759.611 590.118L736.598 547.152L759.892 582.81L762.159 496.496L762.168 496.202V496.487L761.79 564.551L784.701 537.568L761.696 570.415L761.09 607.691L782.482 571.916L761.001 613.175L760.662 633.898L791.718 584.107L760.547 641.13L759.798 687.223Z" fill="#594F42"/>
<path d="M717.502 612.706C720.437 606.519 706.837 593.924 687.127 584.576C667.416 575.227 649.058 572.665 646.123 578.853C643.189 585.04 656.788 597.635 676.499 606.984C696.21 616.332 714.567 618.894 717.502 612.706Z" fill="#2F2E41"/>
<path d="M109.478 605.476C112.026 599.119 97.6758 587.386 77.4265 579.27C57.1773 571.154 38.6965 569.728 36.1486 576.085C33.6007 582.441 47.9504 594.174 68.1997 602.29C88.4489 610.407 106.93 611.833 109.478 605.476Z" fill="#2F2E41"/>
</svg>
