<svg width="254" height="213" viewBox="0 0 254 213" fill="none" xmlns="http://www.w3.org/2000/svg">
<path d="M204.906 207.322L33.8672 52.0791L60.6131 0L248.67 206.047L204.906 207.322Z" fill="#FEFEFE" fill-opacity="0.8"/>
<path d="M127 43.9229C132.716 43.9229 137.349 39.2898 137.349 33.5747C137.349 27.8596 132.716 23.2266 127 23.2266C121.285 23.2266 116.652 27.8596 116.652 33.5747C116.652 39.2898 121.285 43.9229 127 43.9229Z" fill="#FEFEFE" fill-opacity="0.8"/>
<path d="M172.469 58.3519C174.374 58.3519 175.918 56.8075 175.918 54.9025C175.918 52.9975 174.374 51.4531 172.469 51.4531C170.564 51.4531 169.02 52.9975 169.02 54.9025C169.02 56.8075 170.564 58.3519 172.469 58.3519Z" fill="#3F3D56"/>
<path d="M172.469 85.6331C174.374 85.6331 175.918 84.0888 175.918 82.1838C175.918 80.2787 174.374 78.7344 172.469 78.7344C170.564 78.7344 169.02 80.2787 169.02 82.1838C169.02 84.0888 170.564 85.6331 172.469 85.6331Z" fill="#3F3D56"/>
<path d="M206.963 92.5316C208.868 92.5316 210.412 90.9872 210.412 89.0822C210.412 87.1772 208.868 85.6328 206.963 85.6328C205.058 85.6328 203.514 87.1772 203.514 89.0822C203.514 90.9872 205.058 92.5316 206.963 92.5316Z" fill="#3F3D56"/>
<path d="M127 212.317C197.14 212.317 254 209.509 254 206.045C254 202.581 197.14 199.773 127 199.773C56.8598 199.773 0 202.581 0 206.045C0 209.509 56.8598 212.317 127 212.317Z" fill="#FEFEFE" fill-opacity="0.8"/>
<path d="M201.292 104.187C199.852 101.811 194.82 101.873 194.82 101.873C190.239 108.679 179.227 101.449 179.227 101.449C171.048 105.108 166.058 93.4475 166.058 93.4475C155.053 91.8018 156.753 80.2437 156.753 80.2437C151.278 79.1444 152.814 69.2452 152.814 69.2452C152.814 69.2452 155.852 66.7534 154.357 64.9305C153.407 63.7716 153.348 60.4457 153.431 58.1752C146.286 56.0023 138.858 54.9007 131.39 54.9063C89.6525 54.9063 55.8174 88.7414 55.8174 130.479C55.8174 172.217 89.6525 206.052 131.39 206.052C173.128 206.052 206.963 172.217 206.963 130.479C206.972 121.412 205.346 112.417 202.161 103.927C201.774 104.365 201.473 104.485 201.292 104.187Z" fill="#3F3D56"/>
<path opacity="0.1" d="M201.292 104.187C199.852 101.811 194.82 101.873 194.82 101.873C190.239 108.679 179.227 101.449 179.227 101.449C171.048 105.108 166.058 93.4475 166.058 93.4475C155.053 91.8018 156.753 80.2437 156.753 80.2437C151.278 79.1444 152.814 69.2452 152.814 69.2452C152.814 69.2452 155.852 66.7534 154.357 64.9305C153.407 63.7716 153.348 60.4457 153.431 58.1752C146.286 56.0023 138.858 54.9007 131.39 54.9063C89.6525 54.9063 55.8174 88.7414 55.8174 130.479C55.8174 172.217 89.6525 206.052 131.39 206.052C173.128 206.052 206.963 172.217 206.963 130.479C206.972 121.412 205.346 112.417 202.161 103.927C201.774 104.365 201.473 104.485 201.292 104.187Z" fill="black"/>
<path d="M196.814 103.884C195.444 101.625 190.659 101.683 190.659 101.683C186.302 108.156 175.829 101.28 175.829 101.28C168.05 104.76 163.304 93.6702 163.304 93.6702C152.838 92.1051 154.455 81.1128 154.455 81.1128C149.248 80.0673 150.709 70.6526 150.709 70.6526C150.709 70.6526 153.598 68.2828 152.176 66.5492C151.272 65.447 151.216 62.2839 151.295 60.1246C144.5 58.058 137.436 57.0103 130.333 57.0156C90.6388 57.0156 58.46 89.1945 58.46 128.889C58.46 168.584 90.6388 200.763 130.333 200.763C170.028 200.763 202.207 168.584 202.207 128.889C202.216 120.266 200.669 111.711 197.64 103.637C197.271 104.053 196.985 104.167 196.814 103.884Z" fill="#3F3D56"/>
<path d="M121.751 99.5049C121.751 99.5049 109.357 91.6176 97.5264 99.5049C93.3856 102.265 91.3152 106.199 90.3732 110.147C88.6983 117.165 90.5351 124.565 95.0141 130.223L121.779 164.031C122.696 165.208 123.927 166.104 125.33 166.615C126.733 167.127 128.252 167.233 129.712 166.921C129.77 166.909 129.828 166.895 129.887 166.881C130.945 166.621 131.938 166.147 132.805 165.488C133.673 164.829 134.396 164 134.931 163.051L153.544 130.364C156.988 124.411 158.4 117.499 157.566 110.673C156.693 103.95 153.465 96.864 144.286 94.4345C144.286 94.4345 133.582 89.9275 121.751 99.5049Z" fill="#6DCCA2"/>
<path opacity="0.1" d="M121.673 99.2627C121.673 99.2627 109.279 91.3755 97.4483 99.2627C93.3075 102.023 91.2371 105.957 90.2951 109.904C88.6201 116.923 90.457 124.323 94.9359 129.98L121.701 163.788C122.618 164.966 123.849 165.862 125.252 166.373C126.655 166.884 128.173 166.99 129.634 166.679C129.692 166.666 129.75 166.653 129.809 166.639C130.866 166.378 131.86 165.904 132.727 165.246C133.594 164.587 134.318 163.758 134.853 162.809L153.466 130.122C156.91 124.169 158.321 117.257 157.487 110.43C156.615 103.708 153.386 96.6218 144.208 94.1923C144.208 94.1923 133.504 89.6853 121.673 99.2627Z" fill="black"/>
<path d="M121.878 101.406C121.878 101.406 110.251 94.0077 99.153 101.406C95.2686 103.996 93.3265 107.686 92.4428 111.389C90.8716 117.973 92.5947 124.915 96.7962 130.222L121.903 161.936C122.764 163.041 123.919 163.881 125.235 164.361C126.551 164.84 127.975 164.94 129.345 164.648C129.4 164.636 129.454 164.623 129.509 164.61C130.501 164.366 131.433 163.921 132.247 163.303C133.061 162.685 133.739 161.907 134.241 161.017L151.702 130.354C154.932 124.77 156.256 118.286 155.474 111.883C154.655 105.577 151.627 98.9292 143.017 96.6501C143.017 96.6501 132.976 92.4223 121.878 101.406Z" fill="#6DCCA2"/>
<path opacity="0.1" d="M122.33 114.095C122.33 114.095 116.674 110.495 111.274 114.095C109.597 115.229 108.427 116.97 108.009 118.951C107.648 120.539 107.651 122.189 108.017 123.776C108.384 125.362 109.106 126.846 110.127 128.114C110.127 128.114 124.609 145.166 125.963 144.863C125.99 144.857 126.016 144.851 126.043 144.845C127.019 144.61 136.84 128.178 136.84 128.178C138.412 125.462 139.056 122.307 138.676 119.191C138.277 116.123 136.804 112.889 132.615 111.78C132.615 111.78 127.73 109.723 122.33 114.095Z" fill="black"/>
<path opacity="0.1" d="M86.998 141.047L88.5835 143.689L91.7541 148.974L92.8112 152.673L90.6974 155.844L93.3396 162.186L94.3967 165.886L92.2828 167.999L96.5105 171.17" fill="black"/>
<path opacity="0.1" d="M164.684 117.789V122.017L162.042 128.887L160.456 132.587L163.099 137.343L164.156 140.514L168.383 142.099L169.969 144.742V151.083" fill="black"/>
<path opacity="0.1" d="M191.637 122.016L187.409 124.658C187.409 124.658 185.295 125.715 185.295 126.243V130.471" fill="black"/>
<path opacity="0.1" d="M172.611 107.227L173.668 112.511L172.611 116.211" fill="black"/>
<path opacity="0.1" d="M176.84 154.781L173.669 159.537L169.97 162.708V164.822L172.084 167.465V170.636L170.498 173.806" fill="black"/>
<path opacity="0.1" d="M146.717 64.9453H141.432L137.204 68.6446L130.334 72.3439L127.163 74.9865V76.0435L120.293 79.7428L118.179 83.4422" fill="black"/>
<path opacity="0.1" d="M89.6401 73.9297L84.8838 83.4424L83.2983 87.1417L79.5989 91.8981C79.5989 91.8981 76.9565 96.6544 76.428 97.1829C75.8996 97.7114 72.2002 98.7683 72.2002 98.7683L77.485 104.053" fill="black"/>
<path opacity="0.1" d="M68.501 110.391L67.4439 117.261L68.501 121.489V128.887L65.3301 142.628L68.501 146.327L72.2003 151.084" fill="black"/>
<path opacity="0.1" d="M76.4277 113.562L79.5987 115.148L81.7125 122.018L85.9405 120.961L88.0543 124.661" fill="black"/>
<path opacity="0.1" d="M134.562 182.264L143.017 181.207L146.717 177.508H152.001" fill="black"/>
<path opacity="0.1" d="M83.2979 171.172L86.4688 174.871L91.7536 176.457L95.4532 177.514L96.5099 183.327" fill="black"/>
<path opacity="0.1" d="M145.659 153.199L149.359 150.557L150.944 146.329L154.115 145.8L155.7 140.516" fill="black"/>
<path d="M50.7487 20.4062H59.5974C62.3911 20.4063 65.0705 21.5161 67.046 23.4916C69.0215 25.467 70.1313 28.1464 70.1313 30.9401V50.3227H40.2148V30.9401C40.2148 29.5568 40.4873 28.187 41.0167 26.909C41.5461 25.631 42.322 24.4697 43.3001 23.4916C44.2783 22.5134 45.4396 21.7375 46.7176 21.2081C47.9956 20.6787 49.3654 20.4062 50.7487 20.4062V20.4062Z" fill="#2F1A0E"/>
<path d="M59.8341 186.633C59.8341 186.633 58.8933 192.591 57.3254 193.532C55.7575 194.472 65.4785 196.667 65.4785 196.667L67.0464 187.26L59.8341 186.633Z" fill="#F5D4B2"/>
<path d="M71.4361 118.586L74.8854 122.662L73.3175 136.774L72.0632 164.682C72.0632 164.682 74.5719 188.828 72.0632 189.455C69.5546 190.082 58.2657 189.769 58.5793 188.201C58.8928 186.633 59.2064 185.379 59.8336 183.183C60.4607 180.988 59.2064 173.149 59.2064 173.149L60.7743 164.369L55.1299 126.425L71.4361 118.586Z" fill="#2F2E41"/>
<path d="M60.1475 192.591C60.1475 192.591 56.6981 191.964 56.3845 192.591C56.071 193.218 50.1129 199.804 49.1722 199.804C48.2315 199.804 41.3327 206.075 48.545 206.389C55.7574 206.702 67.6734 201.058 67.6734 201.058C67.6734 201.058 65.9198 193.078 66.0127 193.462C66.1055 193.846 60.1475 194.159 60.1475 192.591Z" fill="#2F2E41"/>
<path d="M56.3838 178.166C56.3838 178.166 65.164 187.887 65.4776 188.827C65.7912 189.768 70.4949 188.827 70.4949 188.827L72.3764 182.556L70.8085 180.361L62.0282 173.148L56.3838 178.166Z" fill="#F5D4B2"/>
<path d="M68.9278 185.38L64.3809 189.66C64.3809 189.66 70.1821 198.551 70.1821 199.492C70.1821 200.432 70.4957 208.272 73.6315 207.018C76.7673 205.763 77.0809 193.22 77.0809 193.22C77.0809 193.22 76.7673 180.363 74.8858 179.422C73.0043 178.482 68.8806 178.779 68.8806 178.779C68.8806 178.779 71.4364 185.067 68.9278 185.38Z" fill="#2F2E41"/>
<path d="M42.9001 90.6725C42.9001 90.6725 41.3322 95.6898 41.0186 96.9441C40.7051 98.1985 38.8236 101.648 38.8236 106.979C38.8236 112.31 39.4507 118.581 38.8236 119.208C38.1964 119.835 28.1619 154.956 32.552 158.719C36.9421 162.482 51.3668 175.026 52.3075 176.594C53.2483 178.161 53.5619 181.924 55.4433 181.297C57.3248 180.67 64.5372 174.398 64.8507 173.144C65.1643 171.89 60.7742 169.695 60.7742 169.695C60.7742 169.695 51.994 156.838 49.7989 157.152C47.6038 157.465 47.9174 155.584 48.231 154.643C48.5446 153.702 49.1717 153.075 48.231 153.075C47.2903 153.075 47.9174 150.566 48.231 149.312C48.5446 148.058 55.7569 131.124 55.7569 131.124L74.8853 122.658C74.8853 122.658 73.9446 99.7664 67.0458 93.4947L65.4779 89.7318C65.4779 89.7318 47.9174 88.4775 42.9001 90.6725Z" fill="#2F2E41"/>
<path d="M50.4864 40.7656C50.4864 40.7656 51.8975 50.957 48.1346 51.5841C44.3716 52.2113 41.3926 52.6817 41.3926 52.9953C41.3926 53.3088 50.8 63.0298 50.8 63.0298L59.5802 62.4027L69.7716 53.936C69.7716 53.936 60.2074 52.6817 60.2074 48.2916C60.2074 43.9014 59.8938 40.7656 59.8938 40.7656H50.4864Z" fill="#F5D4B2"/>
<path d="M55.6009 45.6685C60.9696 45.6685 65.3219 41.3163 65.3219 35.9476C65.3219 30.5788 60.9696 26.2266 55.6009 26.2266C50.2321 26.2266 45.8799 30.5788 45.8799 35.9476C45.8799 41.3163 50.2321 45.6685 55.6009 45.6685Z" fill="#F5D4B2"/>
<path d="M46.9765 51.7891C46.9765 51.7891 34.7468 53.357 33.8061 57.4335C32.8654 61.51 40.0777 86.91 41.0184 89.1051C41.9592 91.3002 41.6456 92.8681 41.6456 92.8681C43.0645 91.8069 44.6942 91.062 46.4251 90.6833C48.1559 90.3047 49.9478 90.3012 51.6802 90.673C57.6382 91.9273 66.1049 91.3002 66.1049 91.3002C66.1049 91.3002 68.9271 79.6977 69.5542 78.4434C70.1814 77.1891 72.69 70.2903 72.69 68.4088C72.69 66.5273 76.453 58.6878 76.453 58.6878C76.453 58.6878 74.5715 53.0434 67.6728 53.357C67.6728 53.357 64.6636 52.0101 63.8163 52.9971C62.9691 53.9841 58.2654 58.3742 52.3073 56.4928C46.3493 54.6113 46.9765 51.7891 46.9765 51.7891Z" fill="#7165FF"/>
<path d="M37.2557 57.1172H33.8063L31.9248 81.89C31.9248 81.89 38.8236 83.7715 39.7643 82.5172C40.7051 81.2629 37.2557 57.1172 37.2557 57.1172Z" fill="#7165FF"/>
<path d="M70.4951 57.1172L76.4531 58.6851C76.4531 58.6851 80.8433 74.6777 81.1568 74.9913C81.4704 75.3048 81.784 77.1863 81.784 77.1863C81.784 77.1863 81.784 77.4999 82.4112 78.4406C83.0383 79.3814 83.9791 78.7542 83.3519 80.0085C82.7247 81.2629 81.784 80.6357 82.4112 81.89C83.0383 83.1444 82.7247 86.5937 82.7247 86.5937C82.7247 86.5937 81.1568 80.6357 75.5124 82.2036L71.7494 65.2703L70.4951 57.1172Z" fill="#7165FF"/>
<path d="M63.1901 33.5861H48.0856L44.666 25.7266H65.7549L63.1901 33.5861Z" fill="#2F1A0E"/>
<path d="M46.1037 39.3407C46.5071 39.2238 46.5815 38.2569 46.2697 37.181C45.9579 36.1051 45.3781 35.3277 44.9747 35.4446C44.5712 35.5615 44.4969 36.5284 44.8086 37.6043C45.1204 38.6802 45.7002 39.4577 46.1037 39.3407Z" fill="#F5D4B2"/>
<path d="M66.5383 37.6003C66.85 36.5244 66.7757 35.5574 66.3722 35.4405C65.9688 35.3236 65.389 36.101 65.0772 37.1769C64.7654 38.2528 64.8398 39.2198 65.2432 39.3367C65.6467 39.4536 66.2265 38.6762 66.5383 37.6003Z" fill="#F5D4B2"/>
<path d="M63.9706 79.0467C67.088 79.0467 69.6151 76.5196 69.6151 73.4023C69.6151 70.2849 67.088 67.7578 63.9706 67.7578C60.8533 67.7578 58.3262 70.2849 58.3262 73.4023C58.3262 76.5196 60.8533 79.0467 63.9706 79.0467Z" fill="#3F3D56"/>
<path opacity="0.1" d="M63.9706 79.0467C67.088 79.0467 69.6151 76.5196 69.6151 73.4023C69.6151 70.2849 67.088 67.7578 63.9706 67.7578C60.8533 67.7578 58.3262 70.2849 58.3262 73.4023C58.3262 76.5196 60.8533 79.0467 63.9706 79.0467Z" fill="black"/>
<path d="M63.9704 78.4896C66.7786 78.4896 69.0551 76.2132 69.0551 73.405C69.0551 70.5968 66.7786 68.3203 63.9704 68.3203C61.1622 68.3203 58.8857 70.5968 58.8857 73.405C58.8857 76.2132 61.1622 78.4896 63.9704 78.4896Z" fill="#3F3D56"/>
<path opacity="0.1" d="M63.7457 70.5235C63.7457 70.5235 62.4502 69.6991 61.2136 70.5235C60.8296 70.7834 60.5616 71.1822 60.4659 71.6359C60.3831 71.9996 60.3838 72.3773 60.4678 72.7407C60.5518 73.1042 60.717 73.4439 60.951 73.7343L63.7486 77.2681C63.8445 77.3912 63.9732 77.4849 64.1198 77.5383C64.2665 77.5917 64.4252 77.6028 64.5778 77.5703L64.5961 77.5661C64.7067 77.5389 64.8105 77.4893 64.9011 77.4205C64.9918 77.3516 65.0674 77.2649 65.1233 77.1658L67.0689 73.7491C67.4289 73.1269 67.5764 72.4044 67.4892 71.6909C67.4692 71.2969 67.3237 70.9196 67.074 70.6142C66.8242 70.3089 66.4834 70.0914 66.1012 69.9936C66.1012 69.9936 64.9824 69.5225 63.7457 70.5235Z" fill="black"/>
<path d="M63.7595 70.726C63.7595 70.726 62.5442 69.9527 61.3842 70.726C61.024 70.9698 60.7725 71.3439 60.6828 71.7695C60.6051 72.1107 60.6057 72.465 60.6846 72.8059C60.7634 73.1468 60.9183 73.4655 61.1379 73.738L63.7622 77.0529C63.8522 77.1684 63.9728 77.2562 64.1104 77.3064C64.248 77.3565 64.3969 77.3669 64.5401 77.3364L64.5572 77.3324C64.6609 77.3069 64.7583 77.2604 64.8434 77.1958C64.9284 77.1313 64.9993 77.0499 65.0518 76.9569L66.8769 73.7518C67.2145 73.1682 67.3529 72.4904 67.2712 71.8211C67.2524 71.4515 67.1159 71.0976 66.8816 70.8111C66.6474 70.5247 66.3276 70.3207 65.9691 70.2289C65.9691 70.2289 64.9195 69.787 63.7595 70.726Z" fill="#6DCCA2"/>
<path opacity="0.1" d="M63.8063 72.0579C63.632 71.9523 63.4322 71.8965 63.2285 71.8965C63.0247 71.8965 62.8249 71.9523 62.6506 72.0579C62.4754 72.1765 62.353 72.3585 62.3094 72.5656C62.2716 72.7316 62.2719 72.904 62.3102 73.0698C62.3486 73.2357 62.424 73.3907 62.5308 73.5233C62.5308 73.5233 64.0445 75.3057 64.186 75.274L64.1944 75.2721C64.2964 75.2476 65.3229 73.53 65.3229 73.53C65.4872 73.246 65.5546 72.9163 65.5148 72.5907C65.5056 72.4108 65.4392 72.2387 65.3253 72.0993C65.2113 71.9599 65.0557 71.8607 64.8813 71.816C64.6967 71.7581 64.5 71.7499 64.3113 71.7924C64.1225 71.8349 63.9483 71.9265 63.8063 72.0579V72.0579Z" fill="black"/>
<path d="M58.953 82.1795C62.0704 82.1795 64.5975 79.6524 64.5975 76.5351C64.5975 73.4177 62.0704 70.8906 58.953 70.8906C55.8357 70.8906 53.3086 73.4177 53.3086 76.5351C53.3086 79.6524 55.8357 82.1795 58.953 82.1795Z" fill="#3F3D56"/>
<path opacity="0.1" d="M58.953 82.1795C62.0704 82.1795 64.5975 79.6524 64.5975 76.5351C64.5975 73.4177 62.0704 70.8906 58.953 70.8906C55.8357 70.8906 53.3086 73.4177 53.3086 76.5351C53.3086 79.6524 55.8357 82.1795 58.953 82.1795Z" fill="black"/>
<path d="M58.9528 81.6303C61.761 81.6303 64.0375 79.3538 64.0375 76.5456C64.0375 73.7374 61.761 71.4609 58.9528 71.4609C56.1446 71.4609 53.8682 73.7374 53.8682 76.5456C53.8682 79.3538 56.1446 81.6303 58.9528 81.6303Z" fill="#3F3D56"/>
<path opacity="0.1" d="M58.8444 73.7032C58.8444 73.7032 57.5489 72.8788 56.3122 73.7032C55.9283 73.9631 55.6602 74.3619 55.5646 74.8156C55.4818 75.1793 55.4824 75.557 55.5664 75.9204C55.6504 76.2839 55.8156 76.6236 56.0496 76.914L58.8472 80.4478C58.9432 80.5709 59.0718 80.6645 59.2185 80.718C59.3651 80.7714 59.5238 80.7825 59.6765 80.75L59.6947 80.7457C59.8053 80.7185 59.9091 80.669 59.9998 80.6002C60.0905 80.5313 60.1661 80.4446 60.222 80.3454L62.1676 76.9288C62.5275 76.3066 62.6751 75.5841 62.5879 74.8705C62.5679 74.4766 62.4223 74.0993 62.1726 73.7939C61.9229 73.4886 61.582 73.2711 61.1999 73.1732C61.1999 73.1732 60.081 72.7021 58.8444 73.7032Z" fill="black"/>
<path d="M58.7419 73.8667C58.7419 73.8667 57.5267 73.0933 56.3666 73.8667C56.0064 74.1104 55.7549 74.4845 55.6652 74.9101C55.5876 75.2513 55.5882 75.6056 55.667 75.9466C55.7458 76.2875 55.9008 76.6061 56.1203 76.8786L58.7446 80.1936C58.8346 80.309 58.9553 80.3969 59.0928 80.447C59.2304 80.4971 59.3793 80.5075 59.5225 80.477L59.5396 80.473C59.6433 80.4475 59.7407 80.401 59.8258 80.3365C59.9108 80.2719 59.9818 80.1906 60.0342 80.0975L61.8593 76.8925C62.197 76.3088 62.3354 75.631 62.2536 74.9617C62.2348 74.5921 62.0983 74.2382 61.864 73.9518C61.6298 73.6653 61.31 73.4613 60.9515 73.3695C60.9515 73.3695 59.902 72.9276 58.7419 73.8667Z" fill="#6DCCA2"/>
<path opacity="0.1" d="M58.7887 75.1829C58.6144 75.0773 58.4146 75.0215 58.2109 75.0215C58.0071 75.0215 57.8073 75.0773 57.633 75.1829C57.4578 75.3015 57.3354 75.4835 57.2918 75.6906C57.254 75.8566 57.2543 76.029 57.2926 76.1948C57.331 76.3607 57.4064 76.5157 57.5132 76.6483C57.5132 76.6483 59.0269 78.4307 59.1684 78.399L59.1768 78.3971C59.2788 78.3726 60.3054 76.655 60.3054 76.655C60.4696 76.371 60.537 76.0413 60.4972 75.7157C60.4881 75.5358 60.4217 75.3637 60.3077 75.2243C60.1937 75.0849 60.0381 74.9857 59.8637 74.941C59.6791 74.8831 59.4824 74.8749 59.2937 74.9174C59.1049 74.9599 58.9307 75.0515 58.7887 75.1829V75.1829Z" fill="black"/>
<path d="M54.6485 62.4223C54.5111 62.1955 54.0309 62.2014 54.0309 62.2014C53.5937 62.851 52.5427 62.1609 52.5427 62.1609C51.7622 62.5102 51.2859 61.3973 51.2859 61.3973C50.2356 61.2403 50.3979 60.1372 50.3979 60.1372C49.8754 60.0323 50.022 59.0875 50.022 59.0875C50.022 59.0875 50.3119 58.8497 50.1692 58.6758C50.0841 58.4723 50.0536 58.25 50.0808 58.0311C48.5244 57.5574 46.8535 57.6241 45.3399 58.2205C43.8262 58.8169 42.5589 59.9078 41.7439 61.3159C40.929 62.7239 40.6144 64.3663 40.8512 65.9759C41.0881 67.5854 41.8626 69.0675 43.0486 70.1811C44.2347 71.2946 45.7626 71.9742 47.3839 72.1092C49.0052 72.2442 50.6245 71.8267 51.9784 70.9247C53.3323 70.0226 54.3412 68.6891 54.8411 67.1409C55.3409 65.5927 55.3023 63.9209 54.7315 62.3974C54.6944 62.4392 54.6657 62.4507 54.6485 62.4223Z" fill="#3F3D56"/>
<path opacity="0.1" d="M54.6485 62.4223C54.5111 62.1955 54.0309 62.2014 54.0309 62.2014C53.5937 62.851 52.5427 62.1609 52.5427 62.1609C51.7622 62.5102 51.2859 61.3973 51.2859 61.3973C50.2356 61.2403 50.3979 60.1372 50.3979 60.1372C49.8754 60.0323 50.022 59.0875 50.022 59.0875C50.022 59.0875 50.3119 58.8497 50.1692 58.6758C50.0841 58.4723 50.0536 58.25 50.0808 58.0311C48.5244 57.5574 46.8535 57.6241 45.3399 58.2205C43.8262 58.8169 42.5589 59.9078 41.7439 61.3159C40.929 62.7239 40.6144 64.3663 40.8512 65.9759C41.0881 67.5854 41.8626 69.0675 43.0486 70.1811C44.2347 71.2946 45.7626 71.9742 47.3839 72.1092C49.0052 72.2442 50.6245 71.8267 51.9784 70.9247C53.3323 70.0226 54.3412 68.6891 54.8411 67.1409C55.3409 65.5927 55.3023 63.9209 54.7315 62.3974C54.6944 62.4392 54.6657 62.4507 54.6485 62.4223Z" fill="black"/>
<path d="M54.2213 62.403C54.0906 62.1873 53.6339 62.1929 53.6339 62.1929C53.2181 62.8107 52.2186 62.1544 52.2186 62.1544C51.4763 62.4865 51.0233 61.4282 51.0233 61.4282C50.0245 61.2788 50.1788 60.2298 50.1788 60.2298C49.6818 60.13 49.8213 59.2315 49.8213 59.2315C49.8213 59.2315 50.097 59.0053 49.9613 58.8399C49.8803 58.6463 49.8514 58.4349 49.8772 58.2267C48.397 57.7762 46.8079 57.8397 45.3684 58.4069C43.9288 58.9741 42.7235 60.0116 41.9484 61.3508C41.1734 62.6899 40.8741 64.2518 41.0994 65.7826C41.3247 67.3134 42.0613 68.7229 43.1893 69.782C44.3173 70.841 45.7704 71.4873 47.3123 71.6157C48.8543 71.7441 50.3943 71.3471 51.6819 70.4892C52.9696 69.6313 53.9291 68.363 54.4045 66.8906C54.8799 65.4182 54.8431 63.8282 54.3002 62.3793C54.265 62.4191 54.2377 62.43 54.2213 62.403Z" fill="#3F3D56"/>
<path d="M47.0577 61.9834C47.0577 61.9834 45.8749 61.2307 44.7458 61.9834C44.3952 62.2207 44.1504 62.5848 44.0631 62.999C43.9875 63.3311 43.9881 63.676 44.0648 64.0078C44.1415 64.3397 44.2923 64.6498 44.506 64.915L47.0603 68.1415C47.1479 68.2539 47.2654 68.3394 47.3992 68.3882C47.5331 68.437 47.6781 68.4471 47.8174 68.4174L47.8341 68.4135C47.9351 68.3887 48.0298 68.3434 48.1126 68.2806C48.1954 68.2177 48.2644 68.1386 48.3155 68.048L50.0919 64.9285C50.4205 64.3604 50.5552 63.7007 50.4757 63.0492C50.4574 62.6895 50.3245 62.3451 50.0965 62.0663C49.8685 61.7874 49.5573 61.5889 49.2083 61.4996C49.2083 61.4996 48.1868 61.0694 47.0577 61.9834Z" fill="#6DCCA2"/>
<path opacity="0.1" d="M46.9522 62.0459C46.9522 62.0459 45.7694 61.2932 44.6403 62.0459C44.2897 62.2832 44.045 62.6473 43.9576 63.0615C43.882 63.3936 43.8826 63.7385 43.9593 64.0703C44.036 64.4022 44.1869 64.7123 44.4005 64.9775L46.9548 68.204C47.0424 68.3164 47.1599 68.4019 47.2938 68.4507C47.4277 68.4995 47.5726 68.5096 47.712 68.4799L47.7287 68.476C47.8296 68.4512 47.9244 68.4059 48.0072 68.3431C48.0899 68.2802 48.159 68.2011 48.21 68.1105L49.9864 64.991C50.3151 64.4229 50.4498 63.7632 50.3702 63.1117C50.3519 62.752 50.219 62.4076 49.991 62.1288C49.763 61.8499 49.4518 61.6514 49.1029 61.5621C49.1029 61.5621 48.0813 61.1319 46.9522 62.0459Z" fill="black"/>
<path d="M47.0699 62.166C47.0699 62.166 45.9603 61.4599 44.9012 62.166C44.5723 62.3885 44.3427 62.7301 44.2608 63.1187C44.1899 63.4302 44.1904 63.7537 44.2624 64.065C44.3343 64.3762 44.4758 64.6672 44.6763 64.916L47.0724 67.9426C47.1545 68.0481 47.2647 68.1283 47.3903 68.174C47.5159 68.2198 47.6519 68.2293 47.7826 68.2014L47.7983 68.1978C47.893 68.1745 47.9819 68.1321 48.0595 68.0731C48.1372 68.0141 48.202 67.9399 48.2498 67.855L49.9162 64.9286C50.2245 64.3957 50.3509 63.7769 50.2762 63.1658C50.2591 62.8283 50.1344 62.5052 49.9205 62.2437C49.7067 61.9821 49.4147 61.7958 49.0874 61.712C49.0874 61.712 48.1291 61.3085 47.0699 62.166Z" fill="#6DCCA2"/>
<path opacity="0.1" d="M47.1131 63.3762C46.954 63.2799 46.7715 63.2289 46.5855 63.2289C46.3995 63.2289 46.2171 63.2799 46.058 63.3762C45.8979 63.4845 45.7862 63.6507 45.7464 63.8398C45.7119 63.9913 45.7121 64.1487 45.7472 64.3001C45.7822 64.4516 45.851 64.5931 45.9485 64.7142C45.9485 64.7142 47.3306 66.3416 47.4598 66.3127L47.4675 66.3109C47.8384 65.799 48.1824 65.2681 48.4979 64.7203C48.6479 64.461 48.7094 64.16 48.673 63.8627C48.6647 63.6985 48.604 63.5413 48.5 63.414C48.3959 63.2868 48.2539 63.1961 48.0946 63.1554C47.9261 63.1025 47.7465 63.0951 47.5742 63.1338C47.4018 63.1726 47.2428 63.2562 47.1131 63.3762Z" fill="black"/>
<path opacity="0.1" d="M43.7412 65.9453L43.8924 66.1974L44.195 66.7017L44.2959 67.0548L44.094 67.3574L44.3464 67.9626L44.4471 68.3157L44.2454 68.5176L44.649 68.8202" fill="black"/>
<path opacity="0.1" d="M51.1546 63.7266V64.1301L50.9024 64.7858L50.751 65.1386L51.0031 65.5927L51.1041 65.8953L51.5076 66.0464L51.6588 66.2989V66.9041" fill="black"/>
<path opacity="0.1" d="M53.7273 64.1328L53.3238 64.385C53.3238 64.385 53.1221 64.4859 53.1221 64.5363V64.9398" fill="black"/>
<path opacity="0.1" d="M51.9121 62.7109L52.0131 63.2152L51.9121 63.5683" fill="black"/>
<path opacity="0.1" d="M52.3149 67.2578L52.0123 67.7116L51.6592 68.0142V68.2161L51.8611 68.4682V68.7708L51.7097 69.0734" fill="black"/>
<path opacity="0.1" d="M49.4402 58.6797H48.936L48.5324 59.0328L47.8767 59.3859L47.5741 59.638V59.739L46.9184 60.0917L46.7168 60.4448" fill="black"/>
<path opacity="0.1" d="M43.9935 59.5391L43.5396 60.4469L43.3882 60.8L43.0352 61.2539C43.0352 61.2539 42.783 61.7078 42.7326 61.7582C42.6037 61.8225 42.4685 61.8733 42.3291 61.9096L42.8335 62.4139" fill="black"/>
<path opacity="0.1" d="M41.9755 63.0234L41.8745 63.6791L41.9755 64.0827V64.7889L41.6729 66.1L41.9755 66.4531L42.3285 66.9071" fill="black"/>
<path opacity="0.1" d="M42.7324 63.3203L43.035 63.4718L43.2367 64.1275L43.6402 64.0265L43.8419 64.3796" fill="black"/>
<path opacity="0.1" d="M48.2803 69.8834L49.0871 69.7828L49.4402 69.4297H49.9448" fill="black"/>
<path opacity="0.1" d="M43.3887 68.8203L43.6913 69.1734L44.1955 69.3246L44.5486 69.4255L44.6496 69.9802" fill="black"/>
<path opacity="0.1" d="M49.3398 67.101L49.6929 66.8489L49.8441 66.4454L50.1467 66.3949L50.2981 65.8906" fill="black"/>
<path d="M32.8657 79.39L31.9249 81.8986C31.9249 81.8986 31.2978 90.0517 35.0607 89.7382C38.8237 89.4246 41.0188 84.7209 41.0188 84.7209C41.0188 84.7209 38.8237 78.7628 36.3151 79.39C33.8064 80.0172 32.8657 79.39 32.8657 79.39Z" fill="#7165FF"/>
<path d="M36.0015 80.9555C36.0015 80.9555 34.12 86.6 36.3151 86.6C38.5101 86.6 42.5867 83.1506 42.9003 80.3283C43.2138 77.5061 48.8583 66.8444 44.7817 67.7851C40.7052 68.7259 38.8237 76.5654 38.8237 76.5654L36.0015 80.9555Z" fill="#F5D4B2"/>
<path d="M80.8434 81.2696L82.8024 84.5435C82.8024 84.5435 83.6656 90.677 79.2755 90.677C74.8854 90.677 68.6138 84.719 68.6138 84.719C68.6138 84.719 65.478 83.4647 63.5965 83.7783C61.715 84.0918 51.3668 83.7783 55.757 78.4474C60.1471 73.1165 67.673 78.4474 67.673 78.4474L75.5125 82.2104L79.5891 80.0153L80.8434 81.2696Z" fill="#F5D4B2"/>
<path d="M78.1788 77.0334L75.043 82.0507C75.043 82.0507 82.2553 82.9914 82.8825 84.5593C83.5096 86.1272 80.0603 76.4062 80.0603 76.4062L78.1788 77.0334Z" fill="#7165FF"/>
</svg>
