<svg width="500" height="500" viewBox="0 0 500 500" fill="none" xmlns="http://www.w3.org/2000/svg">
<g clip-path="url(#clip0_313_1095)">
<rect width="500" height="500" fill="#EDF6F6"/>
<ellipse cx="114.054" cy="324.627" rx="107.921" ry="109.242" transform="rotate(0.0874758 114.054 324.627)" fill="url(#paint0_linear_313_1095)"/>
<ellipse cx="111.822" cy="173.628" rx="59.5" ry="64.2659" transform="rotate(0.0874758 111.822 173.628)" fill="#EDF6F6"/>
<ellipse cx="115.267" cy="157.374" rx="48.1471" ry="58.301" transform="rotate(0.0874758 115.267 157.374)" fill="#6DCCA2"/>
<rect y="314.657" width="231" height="127.007" fill="#EDF6F6"/>
<ellipse cx="383.054" cy="324.627" rx="107.921" ry="109.242" transform="rotate(0.0874758 383.054 324.627)" fill="url(#paint1_linear_313_1095)"/>
<ellipse cx="380.822" cy="173.628" rx="59.5" ry="64.2659" transform="rotate(0.0874758 380.822 173.628)" fill="#EDF6F6"/>
<ellipse cx="384.267" cy="157.374" rx="48.1471" ry="58.301" transform="rotate(0.0874758 384.267 157.374)" fill="#6DCCA2"/>
<rect x="269" y="314.657" width="231" height="127.007" fill="#EDF6F6"/>
<ellipse cx="248.172" cy="368.208" rx="136.419" ry="138.09" transform="rotate(0.0874758 248.172 368.208)" fill="url(#paint2_linear_313_1095)"/>
<ellipse cx="245.351" cy="177.335" rx="75.2121" ry="81.2365" transform="rotate(0.0874758 245.351 177.335)" fill="#EDF6F6"/>
<ellipse cx="249.705" cy="156.789" rx="60.8613" ry="73.6964" transform="rotate(0.0874758 249.705 156.789)" fill="#6DCCA2"/>
<rect x="104" y="355.605" width="292" height="160.546" fill="#EDF6F6"/>
</g>
<defs>
<linearGradient id="paint0_linear_313_1095" x1="114.054" y1="215.385" x2="114.054" y2="433.869" gradientUnits="userSpaceOnUse">
<stop stop-color="#65AF8E"/>
<stop offset="0.1875" stop-color="#6DCCA2"/>
<stop offset="0.9999" stop-color="#6DCCA2"/>
<stop offset="1" stop-color="#6DCCA2" stop-opacity="0"/>
</linearGradient>
<linearGradient id="paint1_linear_313_1095" x1="383.054" y1="215.385" x2="383.054" y2="433.869" gradientUnits="userSpaceOnUse">
<stop stop-color="#65AF8E"/>
<stop offset="0.1875" stop-color="#6DCCA2"/>
<stop offset="0.9999" stop-color="#6DCCA2"/>
<stop offset="1" stop-color="#6DCCA2" stop-opacity="0"/>
</linearGradient>
<linearGradient id="paint2_linear_313_1095" x1="248.172" y1="230.119" x2="248.172" y2="506.298" gradientUnits="userSpaceOnUse">
<stop stop-color="#65AF8E"/>
<stop offset="0.1875" stop-color="#6DCCA2"/>
<stop offset="0.9999" stop-color="#6DCCA2"/>
<stop offset="1" stop-color="#6DCCA2" stop-opacity="0"/>
</linearGradient>
<clipPath id="clip0_313_1095">
<rect width="500" height="500" fill="white"/>
</clipPath>
</defs>
</svg>
