<svg width="990" height="629" viewBox="0 0 990 629" fill="none" xmlns="http://www.w3.org/2000/svg">
<path d="M84.1142 628.602C130.546 628.602 168.186 624.572 168.186 619.602C168.186 614.631 130.546 610.602 84.1142 610.602C37.6825 610.602 0.0422363 614.631 0.0422363 619.602C0.0422363 624.572 37.6825 628.602 84.1142 628.602Z" fill="#E6E6E6"/>
<path d="M989.757 0.390625H219.543V441.259H989.757V0.390625Z" fill="#E6E6E6"/>
<path d="M967.733 55.6875H241.567V415.178H967.733V55.6875Z" fill="white"/>
<path d="M989.428 0H219.214V29.2448H989.428V0Z" fill="#6DCCA2"/>
<path d="M243.53 20.3719C246.88 20.3719 249.595 17.9451 249.595 14.9516C249.595 11.958 246.88 9.53125 243.53 9.53125C240.181 9.53125 237.466 11.958 237.466 14.9516C237.466 17.9451 240.181 20.3719 243.53 20.3719Z" fill="white"/>
<path d="M266.55 20.3719C269.9 20.3719 272.615 17.9451 272.615 14.9516C272.615 11.958 269.9 9.53125 266.55 9.53125C263.201 9.53125 260.486 11.958 260.486 14.9516C260.486 17.9451 263.201 20.3719 266.55 20.3719Z" fill="white"/>
<path d="M289.57 20.3719C292.92 20.3719 295.635 17.9451 295.635 14.9516C295.635 11.958 292.92 9.53125 289.57 9.53125C286.221 9.53125 283.505 11.958 283.505 14.9516C283.505 17.9451 286.221 20.3719 289.57 20.3719Z" fill="white"/>
<path d="M654.26 146.195C654.134 146.597 654.062 147.012 654.045 147.429L654.26 146.195Z" fill="#7F77FF"/>
<path d="M561.391 184.178C561.348 183.275 561.168 182.897 561.003 182.852C561.122 183.69 561.233 184.379 561.391 184.178Z" fill="#7F77FF"/>
<path d="M559.515 203.242C559.483 203.634 559.45 203.996 559.395 204.436C559.288 204.037 559.331 203.618 559.515 203.242Z" fill="#7F77FF"/>
<path d="M654.045 147.43L653.476 150.6C654.067 150.822 653.915 148.975 654.045 147.43Z" fill="#7F77FF"/>
<path d="M686.073 117.887L687.152 117.885C687.475 117.694 687.775 117.473 688.047 117.227L686.073 117.887Z" fill="#7F77FF"/>
<path d="M728.333 119.558C728.371 119.332 728.484 119.122 728.657 118.954C728.831 118.786 729.057 118.668 729.306 118.616C729.022 118.262 728.698 117.936 728.339 117.643C727.817 117.583 728.367 118.957 728.333 119.558Z" fill="#7F77FF"/>
<path d="M772.55 92.6196C772.691 92.6005 772.825 92.5816 772.932 92.5625L772.55 92.6196Z" fill="#7F77FF"/>
<path d="M771.668 92.7489L772.55 92.6172C772.258 92.6568 771.925 92.6981 771.668 92.7489Z" fill="#7F77FF"/>
<path d="M652.244 121.134C652.138 121.115 652.027 121.126 651.929 121.167C651.83 121.207 651.748 121.274 651.695 121.359C651.887 121.471 652.07 121.356 652.244 121.134Z" fill="#7F77FF"/>
<path d="M826.432 94.1641L826.515 94.8089C826.794 94.8882 827.084 94.9351 827.377 94.9485L826.432 94.1641Z" fill="#7F77FF"/>
<path d="M556.111 226.406C556.122 226.406 556.122 226.416 556.1 226.436C556.1 226.445 556.089 226.455 556.078 226.465C556.078 226.485 555.914 226.504 555.793 226.524C555.733 226.508 555.67 226.498 555.607 226.494C555.771 226.475 555.936 226.445 556.067 226.436C556.089 226.416 556.1 226.406 556.111 226.406Z" fill="#7F77FF"/>
<path d="M432.862 377.913C428.547 376.684 439.883 376.335 433.388 374.969C433.993 375.507 427.484 377.114 432.862 377.913Z" fill="#7F77FF"/>
<path d="M467.352 244.148C467.2 244.48 466.969 244.778 466.673 245.019C467.001 244.373 467.187 244.178 467.352 244.148Z" fill="#7F77FF"/>
<path d="M531.228 229.27C530.636 229.254 530.047 229.196 529.466 229.094L531.228 229.27Z" fill="#7F77FF"/>
<path d="M444.491 249.008C443.89 248.904 443.272 248.904 442.671 249.008C442.796 249.078 442.929 249.134 443.069 249.175C443.518 249.008 444.009 248.951 444.491 249.008Z" fill="#7F77FF"/>
<path d="M444.491 249.008C444.72 249.044 444.959 249.085 445.263 249.118C445.009 249.066 444.751 249.03 444.491 249.008Z" fill="#7F77FF"/>
<path d="M406.777 249.125C406.981 249.23 407.25 249.309 407.487 249.402C407.868 249.379 408.314 249.352 408.706 249.328L406.777 249.125Z" fill="#7F77FF"/>
<path d="M438.725 250.055C438.722 250.078 438.712 250.1 438.697 250.119C438.681 250.137 438.661 250.152 438.637 250.162C438.681 250.104 438.725 250.055 438.725 250.055Z" fill="#7F77FF"/>
<path d="M820.15 375.915C819.901 375.896 819.656 375.878 819.384 375.852C819.67 375.885 819.919 375.903 820.15 375.915Z" fill="#7F77FF"/>
<path d="M830.526 344.352C830.517 344.352 830.509 344.357 830.499 344.357C830.509 344.395 830.517 344.384 830.526 344.352Z" fill="#7F77FF"/>
<path d="M527.944 230.163C528.337 230.096 528.722 229.994 529.093 229.859C529.892 230.045 528.798 230.035 527.944 230.163Z" fill="#7F77FF"/>
<path d="M829.408 223.788C829.467 223.556 829.529 223.295 829.602 222.977C829.531 223.251 829.472 223.518 829.408 223.788Z" fill="#7F77FF"/>
<path d="M831.388 327.993C831.507 327.758 831.674 327.546 831.88 327.367L832.033 327.856C832.153 326.851 832.079 325.835 831.814 324.852C832.053 323.548 832.192 322.23 832.23 320.909C833.391 320.351 832.854 315.313 832.92 312.886C831.387 313.082 831.628 309.961 830.391 312.808C830.479 312.642 830.534 313.473 830.599 314.96C830.623 315.309 830.678 315.656 830.764 315.998C830.72 315.949 830.676 315.89 830.621 315.831C830.654 317.426 830.687 319.51 830.731 321.878C829.685 319.797 829.476 317.457 830.139 315.254C829.154 314.011 828.136 312.632 827.665 311.859C829.811 308.532 830.972 302.114 832.285 301.224C831.431 293.798 831.716 283.73 828.826 279.053C828.454 276.94 829.658 276.627 830.118 275.834C830.402 277.057 830.358 278.505 830.774 279.171C830.03 274.944 830.49 266.657 828.465 265.649C829.373 260.327 830.326 268.643 829.997 261.325L830.61 262.313C833.785 248.175 825.75 239.232 829.406 223.783C829.264 224.361 829.132 224.703 828.892 224.86C830.72 206.681 827.173 187.387 830.074 169.443C830.654 164.346 829.373 163.788 828.388 160.677L830.041 159.571L828.136 154.248C826.735 146.705 832.187 141.187 829.548 131.628L828.432 132.861C828.651 129.426 827.775 121.991 829.056 122.568C828.719 122.242 828.488 121.84 828.388 121.406C828.287 120.971 828.322 120.521 828.486 120.102L829.351 119.995L827.863 111.561C828.487 105.035 831.3 112.588 831.464 103.049C831.136 99.5069 828.946 92.9614 828.366 94.2921C828.333 95.7205 827.83 97.9415 826.965 98.0491L826.516 94.8106C826.352 94.7715 826.199 94.7323 826.034 94.6834V94.1648H824.469C824.143 94.0413 823.794 93.9777 823.44 93.9777C823.086 93.9777 822.736 94.0413 822.411 94.1648H783.165L783.592 93.7833L782.301 94.1648H776.761C776.926 93.8713 777.451 93.6267 778.546 93.5093C774.517 92.5016 774.977 94.2333 771.529 93.1082C771.145 92.9321 771.31 92.8342 771.671 92.756L767.73 93.3626C768.507 92.9321 767.084 91.9243 769.492 92.2178C762.442 91.0438 758.118 93.7441 755.458 92.1983L756.049 92.0809C748.726 92.5896 751.824 93.1669 750.773 94.1649H746.197L745.277 93.48L744.04 92.5603C743.619 92.2144 743.161 91.9063 742.672 91.6406C742.295 92.1131 741.958 92.6102 741.665 93.1278C740.526 93.0789 738.184 92.9712 738.293 92.3646C736.29 92.8832 736.706 93.0397 737.187 93.1963C737.713 93.3528 738.348 93.4996 737.538 93.9888C736.255 93.7179 734.946 93.5574 733.63 93.5094C733.487 95.6814 733.662 98.3133 733.608 100.319C733.553 102.413 733.279 103.763 732.206 104.184C733.476 105.739 733.192 100.026 734.078 104.663C731.21 105.964 734.56 110.083 733.246 113.948C731.769 112.833 732.557 108.997 731.232 112.989C731.648 113.384 731.956 113.859 732.13 114.379C732.254 114.903 732.269 115.444 732.174 115.973C731.979 116.913 731.682 117.834 731.287 118.723C730.64 118.578 729.968 118.541 729.306 118.615C729.962 119.505 728.495 119.691 726.295 119.73C724.97 119.73 723.449 119.74 721.894 119.74C720.263 119.76 718.588 119.799 717.012 119.946C717.406 119.349 705.178 118.977 699.332 118.331L699.496 118.028C698.369 119.828 692.337 119.486 687.936 119.858C688.111 118.781 688.9 118.361 691.286 117.881L687.148 117.891C686.174 118.468 684.893 118.772 682.211 118.977L683.251 117.627C680.503 117.666 677.734 118.067 674.767 118.341C673.278 118.478 671.756 118.576 670.147 118.596C669.348 118.605 668.527 118.586 667.684 118.547C667.268 118.527 666.841 118.498 666.414 118.459C665.933 118.41 665.451 118.361 664.969 118.312C664.816 118.625 665.352 119.006 665.692 119.398C666.112 119.777 666.493 120.19 666.83 120.631C666.927 120.751 666.987 120.892 667.004 121.04C667.022 121.187 666.996 121.336 666.929 121.472H663.097C663.108 121.1 663.36 120.768 664.17 120.591C663.043 120.879 661.86 120.949 660.7 120.797C661.576 120.425 662.594 120.044 663.743 119.662C659.583 119.163 662.035 120.611 659.112 120.503C658.51 119.545 656.31 119.819 656.069 119.055C656.89 118.958 659.255 119.447 660.306 119.075C658.127 118.977 655.555 118.752 653.19 118.439C653.051 119.38 652.732 120.294 652.249 121.139C652.862 121.188 653.705 122.108 653.836 124.622C653.88 127.841 653.551 128.36 653.146 128.565C652.949 128.663 652.73 128.673 652.522 128.927C652.396 129.101 652.297 129.288 652.227 129.485C652.114 129.747 652.033 130.02 651.986 130.297C652.73 131.491 651.953 134.622 653.573 134.71C653.562 136.148 652.807 136.412 652.369 136.97C653.081 139.514 652.577 148.848 654.296 145.981L654.405 145.325C654.438 145.453 654.449 145.59 654.482 145.746C654.931 148.272 655.107 150.831 655.007 153.387C654.942 155.52 654.712 157.546 654.493 159.326C652.883 159.199 651.395 159.091 650.004 159.033C649.304 159.013 648.625 158.994 647.946 159.013L646.633 159.043C646.173 159.072 645.702 159.092 645.242 159.111L645.264 158.632C639.736 159.18 632.96 158.954 629.019 160.001C627.388 159.992 625.165 159.111 625.866 158.544C621.64 158.906 621.17 159.444 615.072 158.651C619.309 157.81 613.605 157.898 619.418 158.035C613.934 157.614 612.686 156.841 606.796 158.162C608.799 156.919 602.669 156.606 600.064 156.968L603.906 157.859C601.207 157.988 598.502 157.975 595.805 157.82L597.206 156.195C591.601 155.207 586.533 156.049 581.804 156.724C579.538 157.094 577.243 157.306 574.94 157.36L574.108 157.35L573.046 157.301C572.225 157.262 571.393 157.203 570.55 157.115C568.706 156.918 566.875 156.631 565.066 156.254C563.095 156.822 565.722 157.017 568.142 157.242C570.627 157.467 572.882 157.722 571.174 158.387C567.555 158.173 563.953 157.758 560.391 157.144C559.684 159.277 559.19 161.46 558.913 163.67C558.782 164.952 558.738 166.116 558.738 167.144C558.738 167.653 558.749 168.142 558.782 168.592C558.793 168.797 558.804 169.101 558.826 169.198C558.848 169.316 558.87 169.443 558.891 169.56C559.078 170.407 559.375 171.232 559.778 172.016C560.823 174.001 561.206 176.212 560.884 178.386C561.53 177.534 563.27 176.742 563.872 181.683C563.741 184.422 562.8 185.919 561.957 186.056C561.486 186.144 561.048 185.802 560.796 185.039C560.72 184.845 560.665 184.645 560.632 184.442C560.577 183.336 560.785 182.808 561.004 182.847C560.763 181.36 560.49 179.403 559.789 181.233L560.435 181.83C560.229 182.668 560.09 183.518 560.019 184.373C559.723 187.005 559.548 190.068 558.771 188.982C559.307 191.966 559.712 190.938 560.03 188.952C559.34 194.236 560.107 197.523 559.515 203.247C559.877 202.278 560.643 201.378 560.632 202.347C559.822 211.289 561.869 206.29 562.154 212.346C561.157 215.79 559.789 211.113 560.61 217.208C559.942 220.936 558.891 218.001 558.366 216.524C558.883 219.059 558.89 221.656 558.388 224.194C558.355 224.361 558.333 224.527 558.3 224.683C558.278 224.801 558.257 224.928 558.235 225.045L558.191 225.251C558.18 225.31 558.169 225.3 558.158 225.319L558.07 225.417C557.972 225.516 557.862 225.604 557.742 225.681C557.588 225.762 557.441 225.853 557.304 225.955C557.195 225.799 557.063 225.658 556.91 225.535C556.976 225.602 557.026 225.682 557.056 225.768C557.087 225.854 557.096 225.944 557.085 226.034C557.219 226.113 557.358 226.185 557.501 226.249C557.783 226.38 558.081 226.481 558.388 226.552C558.169 226.836 558.158 227.12 557.731 226.767C557.682 226.737 557.638 226.7 557.6 226.66C557.982 227.171 558.439 227.635 558.957 228.039C559.526 228.558 560.205 229.116 559.559 229.634C558.66 229.435 557.725 229.402 556.812 229.536C556.582 229.546 556.352 229.546 556.133 229.536C555.788 229.519 555.444 229.483 555.104 229.429C554.829 229.411 554.563 229.339 554.324 229.217C554.085 229.095 553.881 228.927 553.724 228.724C554.743 228.793 555.476 228.812 556.023 228.803C556.319 228.803 556.428 228.763 556.516 228.695C556.669 228.577 556.56 228.352 556.461 228.118C556.275 227.716 556.209 227.266 556.538 227.041C556.488 227.053 556.436 227.06 556.385 227.061C556.287 227.058 556.191 227.041 556.1 227.012C555.684 226.983 555.257 226.944 554.808 226.904C554.524 226.728 555.082 226.582 555.607 226.493C555.016 226.386 554.491 226.308 554.031 226.249C553.122 226.101 552.192 226.101 551.283 226.249C549.291 226.67 549.718 228.225 544.069 228.196C545.076 227.335 542.208 226.552 540.905 226.738C544.135 226.758 542.449 228.186 539.493 228.851C534.359 228.176 533.921 229.35 531.228 229.272L534.293 229.595C533.253 230.466 530.692 230.348 527.123 230.622C527.024 230.407 527.298 230.29 527.692 230.202C524.003 230.71 519.58 228.44 514.731 229.282C514.683 229.284 514.635 229.29 514.588 229.301C512.027 228.714 514.337 227.677 512.082 227.276C505.885 228.401 505.371 226.083 498.846 227.012C500.729 228.186 501.058 227.902 496.46 229.037L507.188 228.215L500.302 229.908C503.543 229.928 507.133 229.174 509.071 229.38C505.787 230.329 506.126 230.035 507.681 231.004C503.247 229.253 498.901 232.031 493.789 230.847L493.942 227.951C490.688 227.489 487.372 227.503 484.123 227.99L482.875 228.137L482.251 228.206L482.086 228.225L481.835 228.245L481.32 228.284C479.974 228.372 478.605 228.47 477.193 228.568C474.423 228.734 471.599 228.851 468.37 228.832C468.359 230.123 468.315 231.464 468.238 232.863L468.753 229.174L469.158 229.213C469.11 229.279 469.041 229.33 468.961 229.36C469.427 231.175 469.582 233.042 469.421 234.898C469.421 235.064 469.41 235.24 469.41 235.416V235.426C469.388 236.346 469.355 237.305 469.344 238.264C469.344 238.831 469.355 239.389 469.377 239.937C469.388 240.211 469.41 240.475 469.421 240.739L469.453 241.121L469.497 241.385C468.413 241.111 468.019 242.921 467.352 244.154C467.549 244.114 467.647 244.506 467.713 245.122C467.778 245.377 467.811 245.69 467.888 246.061C468.089 247.079 468.627 248.02 469.432 248.762C469.265 248.91 469.077 249.038 468.873 249.143C468.201 248.919 467.543 248.661 466.903 248.371C466.231 248.244 465.532 248.316 464.91 248.576C464.768 248.635 464.626 248.703 464.483 248.772C464.371 248.826 464.249 248.862 464.122 248.879C463.969 248.918 463.816 248.958 463.673 248.997C463.071 249.163 462.502 249.339 461.944 249.515C459.297 250.493 456.44 250.931 453.58 250.797C455.912 249.75 452.387 249.065 457.587 248.312C454.992 248.302 452.671 248.126 452.628 248.791C452.344 248.699 452.042 248.659 451.741 248.674C450.438 248.684 448.347 249.134 446.432 249.339C445.514 249.467 444.58 249.467 443.662 249.339C443.458 249.31 443.259 249.258 443.071 249.183C442.954 249.229 442.841 249.281 442.731 249.339C442.192 249.777 441.556 250.11 440.864 250.315C440.172 250.521 439.44 250.595 438.714 250.533C438.679 250.515 438.649 250.49 438.626 250.461C438.603 250.431 438.588 250.398 438.581 250.362C438.573 250.327 438.575 250.291 438.584 250.256C438.594 250.221 438.612 250.189 438.637 250.161C438.057 250.562 434.368 250.787 436.721 251.775C433.273 250.474 428.642 250.337 423.924 250.396C417.739 250.464 411.423 250.875 407.482 249.408C404.657 249.564 401.548 249.73 398.494 249.858C396.972 249.907 395.462 249.965 394.017 250.014C393.294 250.034 392.583 250.053 391.904 250.073C391.138 250.083 390.404 250.102 389.704 250.112C389.922 249.965 389.922 249.848 390.043 249.779C390.311 249.684 390.606 249.667 390.886 249.73C390.689 249.711 390.557 249.681 390.317 249.672C390.076 249.652 389.835 249.642 389.605 249.623C389.145 249.603 388.718 249.593 388.324 249.584C387.651 249.581 386.979 249.614 386.31 249.681C385.492 249.752 384.698 249.972 383.978 250.327C382.862 251.156 381.466 251.624 380.015 251.658C380.066 252.711 380.007 253.765 379.84 254.808C379.402 255.66 379.129 255.855 378.943 255.571C378.731 254.99 378.623 254.383 378.625 253.771C378.527 252.216 378.559 250.454 378.231 251.766C376.457 251.061 376.578 254.798 376.884 258.888C377.038 261.266 377.235 262.303 377.268 263.8C377.346 265.163 377.134 266.528 376.644 267.821L376.436 266.647C375.22 270.345 377.782 275.678 377.53 281.724C377.53 281.724 377.213 281.431 376.994 281.685C378.8 285.824 379.402 293.651 379.906 299.462C378.516 297.652 379.172 296.821 377.76 297.926C377.957 300.539 380.026 297.163 380.42 302.368C379.665 304.061 378.997 307.818 377.487 308.317L377.399 303.405C375.45 305.92 377.476 309.755 377.136 312.348L376.282 312.015C376.556 319.539 378.702 319.647 378.548 327.729L379.194 326.897C381.329 331.319 378.001 330.605 379.588 335.008L377.421 336.348C377.946 339.264 379.512 346.553 379.917 351.787C378.319 348.823 377.497 342.708 376.545 338.921C376.534 341.808 376.709 348.745 377.771 350.251C377.563 349.087 377.038 347.619 377.366 346.465C379.063 350.007 379.895 354.674 379.862 360.436C378.494 360.104 377.903 361.591 377.618 363.9C377.607 364.047 377.585 364.194 377.574 364.35C377.563 364.565 377.541 364.79 377.53 365.015C377.508 365.475 377.487 365.945 377.454 366.434C377.432 367.412 377.399 368.45 377.366 369.506C377.311 371.668 377.257 373.938 377.202 376.14C382.205 376.287 386.803 376.609 389.474 377.617L390.371 377.549L390.93 377.49L392.002 377.392C392.714 377.333 393.426 377.285 394.137 377.245C395.56 377.157 396.983 377.128 398.417 377.118C401.275 377.108 404.165 377.216 407.109 377.363C412.999 377.656 419.118 378.097 425.763 377.979C421.056 375.073 429.639 377.901 428.829 374.907C431.894 374.721 433.076 374.77 433.361 374.956L432.912 374.868C433.076 374.907 433.207 374.936 433.383 374.975V374.966L442.753 376.746C444.976 377.617 439.809 377.402 440.093 378.077C446.869 378.312 442.939 379.349 447.417 380.141C446.497 379.075 449.77 378.605 453.635 379.016L448.194 377.637C457.663 376.042 456.383 380.151 465.917 378.566L462.896 379.515C467.8 378.958 480.959 379.535 485.765 377.128C486.629 377.47 487.779 378.292 485.622 378.508C497.325 378.87 511.666 375.954 520.763 377.431L519.876 378.165C522.054 377.95 523.674 376.786 526.411 377.519C526.269 377.823 525.525 378.253 526.543 378.292C527.692 378.048 532.334 377.011 535.235 377.441L532.761 378.263C539.942 378.87 545.021 377.921 550.188 377.001C553.37 376.383 556.596 375.967 559.844 375.758C559.822 377.911 568.799 378.615 573.287 378.958L573.123 379.261C578.451 379.349 583.779 379.117 589.073 378.566C593.134 378.165 597.075 377.656 601.246 377.236H601.257C601.52 377.206 601.782 377.177 602.056 377.148C603.019 377.05 604.005 376.962 605.001 376.874C605.307 376.844 605.625 376.815 605.942 376.786C606.621 376.737 607.311 376.688 608.011 376.639C611.495 377.49 615.085 377.944 618.696 377.989C627.256 378.361 638.028 378.057 646.173 378.928C644.29 378.537 646.479 377.245 648.658 377.03C651.362 377.441 656.003 375.768 656.19 377.187C656.203 377.295 656.196 377.404 656.168 377.51L655.193 377.47H655.139L655.15 377.48C657.328 379.408 663.239 378.899 667.859 378.948L668.615 376.365C680.711 380.122 700.307 374.985 706.908 378.351C709.83 377.705 713.443 377.715 716.333 377.069L716.18 378.449C723.542 378.866 730.923 378.932 738.293 378.644L736.257 379.643C741.895 379.731 743.372 375.641 748.583 375.563L750.138 377.627C759.979 377.598 769.93 379.417 779.651 377.539C779.498 377.842 779.202 378.439 777.615 378.527C782.093 378.576 794.66 379.838 793.959 377.353C795.032 378.752 804.271 377.226 809.296 376.453L808.475 377.813C810.719 376.942 811.869 376.384 813.248 375.993C814.032 375.772 814.833 375.605 815.646 375.494C816.149 375.426 816.631 375.357 817.32 375.298C818.152 375.24 819.094 375.181 820.156 375.112C822.039 375.279 822.356 376.032 820.145 375.925C821.791 376.118 823.462 376.052 825.082 375.729C826.442 375.343 827.859 375.142 829.286 375.132C829.279 374.148 829.338 373.165 829.461 372.187C829.789 373.322 830.118 374.525 830.435 375.797C830.558 373.703 830.46 371.603 830.139 369.526C829.877 368.273 829.461 367.344 828.902 365.612C828.859 365.377 828.826 365.123 828.804 364.859C828.782 364.614 828.76 364.37 828.738 364.105C828.716 363.675 828.705 363.205 828.716 362.736C828.751 361.762 828.857 360.791 829.034 359.83C829.373 357.942 829.975 356.337 830.665 356.004C829.822 355.388 828.694 352.903 829.089 350.222C829.614 349.86 829.942 350.829 830.096 351.328C831.136 343.725 828.322 340.017 829.822 334.793C830.049 334.735 830.255 334.622 830.415 334.466C830.575 334.311 830.684 334.119 830.731 333.912C830.698 339.45 830.621 343.99 830.523 344.352C831.913 344.283 832.165 339.499 834.091 343.354C833.03 339.44 830.731 332.748 831.388 327.993ZM832.625 317.866C832.843 319.49 832.537 320.029 832.22 320.254C832.198 319.49 832.143 318.59 832.033 317.416C831.979 317.377 831.913 317.279 831.847 317.23C832.163 317.379 832.431 317.598 832.625 317.866ZM769.963 93.9497C770.147 94.0023 770.324 94.0746 770.489 94.1649H768.168C768.726 94.0867 769.317 94.0182 769.963 93.9497V93.9497Z" fill="#6DCCA2"/>
<path d="M556.812 226.922C556.741 226.991 556.643 227.033 556.538 227.039C556.621 226.987 556.714 226.947 556.812 226.922Z" fill="#7F77FF"/>
<path d="M527.693 230.201C527.778 230.189 527.861 230.171 527.946 230.156C527.858 230.17 527.773 230.185 527.693 230.201Z" fill="#7F77FF"/>
<path d="M830.602 314.956C830.549 314.736 830.511 314.513 830.49 314.289C830.354 314.62 830.239 314.934 830.144 315.254L830.626 315.827L830.602 314.956Z" fill="#7F77FF"/>
<path d="M654.26 146.195C654.303 146.033 654.377 145.88 654.479 145.742C654.405 145.886 654.357 145.886 654.295 145.979L654.26 146.195Z" fill="#7F77FF"/>
<path d="M730.769 92.514C731.263 92.5246 731.822 93.162 731.715 97.8434L732.045 92.091L734.463 92.1953C732.511 91.664 729.288 90.9497 733.748 90.8221C732.212 90.6618 731.039 90.5394 730.212 90.4531C729.846 93.2116 730.275 92.526 730.769 92.514Z" fill="#7F77FF"/>
<path d="M730.853 116.457C730.715 115.361 730.499 115.33 730.276 115.459C730.053 115.598 729.822 115.878 729.655 115.741C730.196 117.04 730.332 117.669 730.853 116.457Z" fill="#7F77FF"/>
<path d="M624.273 158.048L624.655 156.797C621.734 156.977 624.627 157.282 624.273 158.048Z" fill="#7F77FF"/>
<path d="M573.733 155.798L573.976 155.781L574.426 155.746L576.224 155.609L577.499 155.43L575.063 155.657L573.845 155.77L571.856 155.884L573.356 155.815L573.733 155.798Z" fill="#7F77FF"/>
<path d="M413.623 247.915L414.505 249.456C416.479 249.18 416.894 247.448 413.623 247.915Z" fill="#7F77FF"/>
<path d="M377.582 326.812C377.054 327.69 376.732 328.653 376.634 329.645C376.536 330.637 376.665 331.637 377.013 332.583C377.131 330.281 377.804 327.985 377.582 326.812Z" fill="#7F77FF"/>
<path d="M672.061 378.828L676.403 378.398L674.364 378.312L672.061 378.828Z" fill="#7F77FF"/>
<path d="M693.355 252.526C693.09 264.396 691.234 276.195 687.827 287.67C674.559 331.502 638.258 363.398 618.696 377.986C615.085 377.941 611.495 377.487 608.011 376.636C607.311 376.685 606.621 376.734 605.942 376.782C605.625 376.812 605.307 376.841 605.001 376.87C604.005 376.959 603.019 377.047 602.056 377.144C601.782 377.174 601.52 377.203 601.257 377.232H601.246C594.918 362.441 590.378 347.088 587.704 331.434L587.693 331.424V331.414C584.311 311.337 583.763 287.777 590.89 264.237C593.943 254.275 598.166 244.63 603.49 235.462C628.931 191.336 672.928 165.047 672.928 165.047C672.928 165.047 694.669 204.956 693.355 252.526Z" fill="white"/>
<path d="M559.515 203.242C559.483 203.634 559.45 203.996 559.395 204.436C559.288 204.037 559.331 203.618 559.515 203.242Z" fill="white"/>
<path d="M527.944 230.163C528.337 230.096 528.722 229.994 529.093 229.859C529.892 230.045 528.798 230.035 527.944 230.163Z" fill="white"/>
<path d="M529.466 229.094L531.228 229.27C530.636 229.254 530.047 229.196 529.466 229.094Z" fill="white"/>
<path d="M555.793 226.524C555.733 226.508 555.67 226.498 555.607 226.494C555.771 226.475 555.936 226.445 556.067 226.436C556.089 226.416 556.1 226.406 556.111 226.406C556.122 226.406 556.122 226.416 556.1 226.436C556.1 226.445 556.089 226.455 556.078 226.465C556.078 226.485 555.914 226.504 555.793 226.524Z" fill="white"/>
<path d="M556.812 226.922C556.741 226.991 556.643 227.033 556.538 227.039C556.621 226.987 556.714 226.947 556.812 226.922Z" fill="white"/>
<path d="M619.319 331.36C619.319 331.38 619.309 331.399 619.309 331.419C616.66 346.921 612.18 362.129 605.942 376.787C605.625 376.816 605.307 376.846 605.001 376.875C604.004 376.963 603.019 377.051 602.056 377.149C601.782 377.178 601.519 377.208 601.257 377.237H601.246C597.075 377.658 593.134 378.167 589.073 378.568C569.707 364.254 532.618 332.094 519.186 287.674C515.768 276.198 513.908 264.395 513.647 252.521C513.447 244.762 513.81 237 514.731 229.284C519.58 228.442 524.003 230.712 527.692 230.203C527.298 230.291 527.024 230.409 527.123 230.624C530.692 230.35 533.253 230.467 534.293 229.597L531.228 229.274C533.921 229.352 534.359 228.178 539.493 228.853C542.449 228.188 544.135 226.759 540.905 226.74C542.208 226.554 545.076 227.337 544.069 228.198C549.718 228.227 549.291 226.671 551.283 226.25H554.031C554.491 226.309 555.016 226.387 555.607 226.495C555.082 226.583 554.523 226.73 554.808 226.906C555.257 226.945 555.684 226.984 556.1 227.014C556.191 227.043 556.287 227.06 556.384 227.063C556.436 227.062 556.488 227.055 556.538 227.043C556.209 227.268 556.275 227.718 556.461 228.119C556.56 228.354 556.669 228.579 556.516 228.696C556.428 228.765 556.319 228.804 556.023 228.804C555.476 228.814 554.742 228.794 553.724 228.726C553.88 228.928 554.085 229.097 554.324 229.219C554.563 229.341 554.829 229.413 555.104 229.43C555.444 229.484 555.788 229.52 556.133 229.538C556.352 229.548 556.582 229.548 556.811 229.538C557.725 229.404 558.66 229.437 559.559 229.636C560.205 229.117 559.526 228.56 558.957 228.041C558.438 227.637 557.982 227.173 557.6 226.661C557.638 226.702 557.682 226.738 557.731 226.769C558.158 227.121 558.169 226.838 558.388 226.554C558.08 226.483 557.783 226.381 557.501 226.251H558.3V224.685C558.333 224.529 558.355 224.362 558.388 224.196C558.89 221.658 558.883 219.061 558.366 216.525C558.891 218.003 559.942 220.938 560.61 217.21C559.789 211.115 561.157 215.791 562.154 212.347C561.869 206.291 559.822 211.291 560.632 202.348C560.643 201.38 559.877 202.28 559.515 203.248C560.107 197.525 559.34 194.237 560.03 188.954C559.712 190.94 559.307 191.967 558.771 188.983C559.548 190.069 559.723 187.007 560.019 184.375C560.271 184.59 560.533 184.815 560.796 185.04C561.179 185.373 561.573 185.715 561.957 186.058C575.597 198.024 591.59 214.774 603.49 235.467C603.491 235.467 603.493 235.467 603.494 235.468C603.496 235.468 603.497 235.469 603.498 235.47C603.499 235.471 603.5 235.472 603.5 235.473C603.501 235.474 603.501 235.476 603.501 235.477C608.835 244.638 613.062 254.281 616.112 264.242C623.228 287.762 622.691 311.283 619.319 331.36Z" fill="white"/>
<path d="M467.352 244.148C467.2 244.48 466.969 244.778 466.673 245.019C467.001 244.373 467.187 244.178 467.352 244.148Z" fill="#3F3D56"/>
<path d="M438.725 250.055C438.722 250.078 438.712 250.1 438.697 250.119C438.681 250.137 438.661 250.152 438.637 250.162C438.681 250.104 438.725 250.055 438.725 250.055Z" fill="#3F3D56"/>
<path d="M602.056 377.143C601.782 377.172 601.52 377.202 601.257 377.231H601.246C597.075 377.652 593.134 378.161 589.073 378.562C583.78 379.112 578.451 379.344 573.123 379.256L573.287 378.953C568.799 378.611 559.822 377.906 559.844 375.754C556.597 375.963 553.37 376.378 550.189 376.996C526.51 370.108 498.934 358.446 476.372 338.819C444.571 311.16 430.219 274.206 423.924 250.391C428.643 250.333 433.273 250.47 436.722 251.771C434.368 250.783 438.057 250.558 438.637 250.157C438.612 250.185 438.594 250.217 438.584 250.252C438.575 250.287 438.573 250.323 438.581 250.358C438.588 250.393 438.603 250.427 438.627 250.456C438.65 250.486 438.679 250.51 438.714 250.528C439.44 250.59 440.172 250.516 440.864 250.311C441.556 250.105 442.192 249.773 442.731 249.335H451.741V248.669C452.042 248.654 452.344 248.694 452.628 248.787C452.672 248.122 454.992 248.298 457.587 248.307C452.387 249.061 455.912 249.746 453.58 250.793C456.44 250.927 459.297 250.489 461.944 249.511C462.502 249.335 463.071 249.159 463.673 248.992C463.816 248.953 463.969 248.914 464.122 248.875C464.249 248.858 464.371 248.822 464.483 248.767C464.626 248.699 464.768 248.63 464.91 248.572C465.532 248.312 466.231 248.24 466.903 248.366C467.543 248.657 468.201 248.915 468.873 249.139C469.077 249.034 469.265 248.906 469.432 248.757C468.627 248.015 468.089 247.075 467.888 246.057C467.811 245.685 467.779 245.372 467.713 245.118C467.647 244.501 467.549 244.11 467.352 244.149C468.019 242.916 468.414 241.106 469.497 241.38L469.454 241.116L469.421 240.735C469.41 240.47 469.388 240.206 469.377 239.932C469.355 239.384 469.344 238.827 469.344 238.259C469.355 237.3 469.388 236.342 469.41 235.422C484.824 239.625 499.662 245.358 513.647 252.515C525.541 258.608 536.546 265.992 546.412 274.499C566.161 291.68 579.177 312.442 587.694 331.413V331.422L587.704 331.432C594.306 346.166 599.117 361.491 602.056 377.143Z" fill="#3F3D56"/>
<path d="M655.139 377.469H655.193C655.18 377.476 655.165 377.479 655.15 377.479L655.139 377.469Z" fill="#3F3D56"/>
<path d="M787.719 226.531C787.719 226.531 781.502 294.569 730.641 338.822C707.871 358.635 680.011 370.327 656.19 377.185C656.004 375.767 651.362 377.44 648.658 377.029C646.48 377.244 644.29 378.535 646.173 378.927C638.028 378.056 627.256 378.359 618.696 377.988C615.085 377.942 611.495 377.489 608.011 376.637C607.311 376.686 606.621 376.735 605.942 376.784C605.625 376.813 605.307 376.843 605.001 376.872C607.95 361.289 612.75 346.031 619.32 331.357C627.858 312.405 640.875 291.663 660.59 274.512C670.455 266.004 681.46 258.619 693.355 252.527C738.917 228.909 787.719 226.531 787.719 226.531Z" fill="#3F3D56"/>
<path d="M72.0786 187.266C72.0786 187.266 56.8312 214.52 33.2671 220.715C9.70295 226.909 90.0983 220.715 90.0983 220.715C90.0983 220.715 85.9399 200.893 91.4844 198.415C97.0289 195.938 72.0786 187.266 72.0786 187.266Z" fill="#F5D4B2"/>
<path d="M47.443 140.441C46.6138 133.984 50.5655 128.274 56.2696 127.689C56.3343 127.683 56.398 127.686 56.4626 127.681C55.7495 127.587 55.0259 127.576 54.3098 127.649C48.6058 128.234 44.654 133.944 45.4832 140.401C46.3031 146.785 51.4902 151.502 57.12 151.042C52.2913 150.416 48.1667 146.076 47.443 140.441Z" fill="#3E2C21"/>
<path d="M52.5558 149.196C45.6674 147.111 41.576 141.481 43.4175 136.621C43.4384 136.565 43.4688 136.515 43.4911 136.461C43.0921 136.997 42.7726 137.578 42.5408 138.188C40.6993 143.048 44.7907 148.678 51.6791 150.763C58.4894 152.824 65.4751 150.643 67.4123 145.896C64.7179 149.532 58.5661 151.015 52.5558 149.196Z" fill="#3E2C21"/>
<path d="M4.89307 268.584L6.93055 321.056L38.8115 387.954C38.8115 387.954 30.4947 422.642 47.1282 421.403C63.7617 420.164 48.5143 386.715 48.5143 386.715L33.267 316.101L30.4947 257.875L4.89307 268.584Z" fill="#F5D4B2"/>
<path d="M94.2567 205.845C111.099 205.845 124.752 193.643 124.752 178.591C124.752 163.538 111.099 151.336 94.2567 151.336C77.4149 151.336 63.762 163.538 63.762 178.591C63.762 193.643 77.4149 205.845 94.2567 205.845Z" fill="#F5D4B2"/>
<path d="M119.207 225.668L89.1545 214.938C89.1545 214.938 83.1676 215.757 66.5341 216.996C49.9006 218.235 42.515 217.066 42.515 217.066C42.515 217.066 6.93069 228.146 8.31681 234.34C9.70294 240.534 24.9503 338.403 31.881 333.448C38.8116 328.492 42.97 327.254 42.97 327.254L119.207 321.059V225.668Z" fill="#CFCCE0"/>
<path d="M13.8613 231.859H9.35034C9.35034 231.859 4.15838 234.337 4.15838 241.77C4.15838 249.203 0 271.503 0 271.503H22.178L13.8613 231.859Z" fill="#CFCCE0"/>
<path d="M54.752 243.629L38.01 219.458C37.6288 218.908 37.0788 218.467 36.4253 218.187C35.7719 217.908 35.0425 217.802 34.3237 217.883L29.9579 218.37C29.4211 218.43 28.9048 218.592 28.4441 218.846C27.9833 219.099 27.5887 219.438 27.2869 219.84C26.9851 220.241 26.7832 220.695 26.6946 221.172C26.6061 221.649 26.6331 222.138 26.7738 222.605L35.3462 251.062C35.3462 251.062 48.9006 301.335 35.8859 328.23L35.3462 340.26C35.3462 340.26 22.8711 377.425 25.6433 405.919C28.4155 434.412 29.8017 459.189 29.8017 459.189C29.8017 459.189 22.871 477.772 25.6433 483.966C26.475 485.825 26.3086 488.575 25.6682 491.515C21.7594 509.459 20.7503 527.811 21.3029 546.085L21.4849 552.103C21.4849 552.103 11.782 559.536 20.0988 560.775C28.4156 562.014 54.752 564.492 54.752 564.492C54.752 564.492 60.2965 555.82 57.5242 554.581L65.841 513.699C65.841 513.699 79.7022 496.355 78.3161 485.205C78.3161 485.205 82.4745 466.622 78.3161 457.95L79.7023 403.441L85.2468 469.1L76.93 550.864C76.93 550.864 65.841 558.297 72.7716 560.775C79.7023 563.253 122.672 575.641 122.672 569.447C122.672 563.253 119.9 560.775 119.9 560.775L137.92 393.53L128.217 324.155C128.217 324.155 63.0687 319.199 68.6132 253.54C68.6132 253.54 84.5518 223.954 100.286 218.371C100.465 218.312 100.618 218.204 100.724 218.062C100.83 217.921 100.883 217.753 100.875 217.582C100.868 217.412 100.801 217.248 100.683 217.114C100.566 216.98 100.404 216.883 100.22 216.836L93.8328 215.205C93.6588 215.158 93.4731 215.161 93.3011 215.213C90.5294 216.052 66.4973 223.801 54.752 243.629Z" fill="#2F2E41"/>
<path d="M86.633 559.539L86.4115 561.32C84.9207 572.669 80.7924 583.615 74.2912 593.454C71.1875 598.222 68.8113 603.607 69.9994 607.854C72.7717 617.765 71.3855 621.482 71.3855 621.482H93.5636V617.765L105.946 620.783C108.707 621.496 111.649 621.415 114.356 620.553C117.128 619.623 119.9 617.765 119.9 614.049C119.9 610.951 117.253 608.069 114.165 605.761C107.654 600.988 102.936 594.546 100.649 587.303L100.494 586.794L108.811 559.539L86.633 559.539Z" fill="#2F2E41"/>
<path d="M29.1088 560.156L28.8874 561.937C27.3966 573.286 23.2682 584.232 16.767 594.071C13.6634 598.839 11.2871 604.224 12.4752 608.471C15.2475 618.382 13.8614 622.099 13.8614 622.099H36.0394V618.382L48.4216 621.4C51.1827 622.113 54.1243 622.032 56.8313 621.17C59.6035 620.24 62.3758 618.382 62.3758 614.666C62.3758 611.569 59.7287 608.686 56.6404 606.378C50.1293 601.605 45.4122 595.163 43.1253 587.92L42.9701 587.411L51.2868 560.156H29.1088Z" fill="#2F2E41"/>
<path d="M100.412 183.194C100.412 183.194 122.257 171.915 130.716 171.231C130.716 171.231 133.179 166.275 130.523 161.507C130.523 161.507 129.234 146.208 107.867 146.802C107.867 146.802 82.63 134.583 74.1577 139.572C65.6854 144.56 46.8206 168.498 54.7891 182.804C54.7891 182.804 45.5776 186.946 45.1392 184.717C44.7009 182.487 37.8576 188.476 46.8925 193.636C46.8925 193.636 34.2462 205.077 46.5392 212.239C46.5392 212.239 45.9766 202.091 53.1077 199.023C60.2388 195.955 53.9975 199.177 53.9975 199.177C53.9975 199.177 41.7895 212.849 60.0229 218.171C60.0229 218.171 53.2189 211.246 60.0622 205.256C60.0622 205.256 57.9424 219.245 70.5494 220.718C70.5494 220.718 64.0464 212.409 67.4681 209.415C67.4681 209.415 68.9204 219.717 76.0385 220.954L81.377 221.882L83.1827 213.581C83.1827 213.581 78.1058 224.185 89.9736 224.811C89.9736 224.811 84.236 208.739 91.8317 199.291C99.4273 189.843 100.412 183.194 100.412 183.194Z" fill="#3E2C21"/>
<path d="M66.5045 148.275C70.8954 143.094 70.7446 136.382 66.1677 133.283C61.5907 130.185 54.3208 131.874 49.9299 137.056C45.539 142.237 45.6898 148.949 50.2668 152.047C54.8437 155.145 62.1136 153.457 66.5045 148.275Z" fill="#3E2C21"/>
<path d="M69.5343 142.07C66.7765 143.004 64.3768 144.626 62.6209 146.744C61.0589 148.559 60.0186 150.689 59.5911 152.947C62.3489 152.014 64.7486 150.392 66.5045 148.274C68.0665 146.458 69.1068 144.328 69.5343 142.07Z" fill="#6DCCA2"/>
<path d="M175.366 378.059L173.605 375.959L186.386 367.399C187.903 366.38 189.093 365.022 189.835 363.462C190.578 361.902 190.848 360.194 190.618 358.51L184.286 312.815C183.832 309.498 184.363 306.132 185.827 303.056C187.291 299.981 189.636 297.304 192.626 295.297L206.556 285.967C209.199 284.201 212.517 283.444 215.784 283.863C219.05 284.281 221.997 285.84 223.979 288.198L227.205 292.046L224.856 293.619L221.629 289.771C220.115 287.97 217.863 286.778 215.367 286.459C212.872 286.139 210.336 286.717 208.317 288.067L194.386 297.396C191.81 299.127 189.789 301.433 188.528 304.083C187.266 306.733 186.808 309.634 187.2 312.493L193.531 358.188C193.825 360.33 193.481 362.503 192.536 364.489C191.591 366.475 190.077 368.203 188.147 369.499L175.366 378.059Z" fill="#CFCCE0"/>
<path d="M179.924 381.933L190.344 369.668L186.822 365.469L171.199 371.527L102.999 413.646L115.071 428.045L179.924 381.933Z" fill="#CFCCE0"/>
<path d="M229.045 285.428L215.888 294.241C212.292 296.649 211.561 301.207 214.256 304.421L275.3 377.228C277.995 380.442 283.095 381.095 286.691 378.686L299.848 369.874C303.445 367.466 304.175 362.908 301.48 359.693L240.436 286.887C237.741 283.673 232.642 283.02 229.045 285.428Z" fill="#E6E6E6"/>
<path opacity="0.2" d="M301.482 359.692L299.595 357.442L299.218 356.992C299.858 357.756 300.324 358.626 300.589 359.551C300.854 360.476 300.912 361.438 300.761 362.383C300.609 363.329 300.251 364.238 299.706 365.059C299.161 365.881 298.441 366.598 297.586 367.171L284.426 375.985C282.699 377.141 280.529 377.637 278.394 377.364C276.258 377.09 274.331 376.069 273.037 374.526L273.415 374.976L275.301 377.226C276.595 378.769 278.522 379.79 280.657 380.063C282.793 380.337 284.963 379.841 286.69 378.685L299.85 369.871C301.576 368.714 302.718 366.992 303.024 365.083C303.33 363.174 302.775 361.235 301.482 359.692Z" fill="black"/>
<path d="M262.445 311.634C262.33 311.533 262.234 311.452 262.231 311.497C262.341 311.614 262.413 311.646 262.445 311.634Z" fill="#7F77FF"/>
<path d="M260.376 308.706C260.364 308.637 260.323 308.574 260.26 308.531L260.376 308.706Z" fill="#7F77FF"/>
<path d="M275.259 327.164C275.138 327.199 275.372 327.432 275.526 327.655L275.259 327.164Z" fill="#7F77FF"/>
<path d="M281.698 334.57L281.808 334.7C281.877 334.716 281.948 334.726 282.019 334.728L281.698 334.57Z" fill="#7F77FF"/>
<path d="M285.768 339.986C285.842 339.987 285.915 340 285.984 340.026C286.052 340.053 286.113 340.091 286.165 340.139C286.227 340.094 286.273 340.033 286.296 339.964C286.204 339.834 285.917 339.96 285.768 339.986Z" fill="#7F77FF"/>
<path d="M298.39 355.664L298.329 355.759C298.366 355.801 298.407 355.839 298.453 355.873L298.39 355.664Z" fill="#7F77FF"/>
<path d="M256.378 303.305L256.392 303.33C256.531 303.443 256.463 303.372 256.378 303.305Z" fill="#7F77FF"/>
<path d="M219.419 314.083C219.206 313.411 220.419 314.738 220.011 313.786C219.974 313.925 219.02 313.335 219.419 314.083Z" fill="#7F77FF"/>
<path d="M246.538 291.852C246.517 291.914 246.513 291.979 246.527 292.043C246.549 292.022 246.558 291.974 246.538 291.852Z" fill="#7F77FF"/>
<path d="M241.377 288.539C241.2 288.638 241.043 288.764 240.914 288.912C240.944 288.907 240.972 288.898 240.999 288.886C241.088 288.742 241.218 288.622 241.377 288.539Z" fill="#7F77FF"/>
<path d="M236.253 292.849C236.298 292.842 236.342 292.832 236.385 292.82L236.526 292.688L236.253 292.849Z" fill="#7F77FF"/>
<path d="M298.693 355.894C298.519 356.082 298.179 356.326 298.027 356.244L298.329 355.76C298.307 355.738 298.287 355.713 298.267 355.688C298.286 355.666 298.306 355.644 298.325 355.621L293.979 350.439L294.093 350.445L293.893 350.336L293.342 349.678C293.412 349.665 293.502 349.684 293.632 349.8C293.408 349.19 293.139 349.458 292.994 348.902C292.987 348.835 293.022 348.844 293.073 348.877L292.563 348.476C292.72 348.516 292.76 348.22 292.951 348.548C292.45 347.551 291.518 347.359 291.531 346.849L291.613 346.905C290.777 346.083 290.984 346.528 290.697 346.524L290.233 345.971L290.352 345.251L289.981 345.318C289.888 345.189 289.706 344.934 289.853 344.905C289.285 344.576 289.799 345.062 289.401 344.917C289.157 344.162 287.926 343.374 288.25 342.95C287.865 342.878 288.561 343.619 287.89 343.088C288.209 342.596 287.202 342.416 286.966 341.735C287.346 341.738 287.645 342.333 287.41 341.651C286.73 341.601 286.623 340.545 286.165 340.145C285.822 340.341 285.203 339.25 284.457 338.563C284.015 337.756 283.515 336.976 282.961 336.227L283.034 336.211C282.59 336.294 282.04 335.523 281.527 335.038C281.741 334.927 281.899 334.97 282.228 335.199L281.808 334.701C281.529 334.611 281.286 334.449 281.109 334.236L281.46 334.197C280.716 333.564 280.057 332.856 279.495 332.088C279.312 332.159 279.339 332.633 279.095 332.686L278.716 332.234C278.772 332.213 278.834 332.208 278.893 332.221C278.952 332.233 279.006 332.263 279.045 332.304C278.964 332.238 278.71 332.097 278.632 331.905L279.144 332.127C278.909 331.676 278.799 332.04 278.557 331.715C278.739 331.603 278.49 331.4 278.668 331.351C278.751 331.419 278.822 331.672 278.992 331.744C278.734 331.418 278.564 331.042 278.494 330.648C278.419 330.746 278.256 330.807 278.018 330.565C277.448 329.909 278.04 330.195 277.806 329.747C277.548 329.668 277.32 329.159 277.046 329.325C276.884 329.129 276.977 329.011 276.986 328.888C276.581 328.622 275.605 327.304 275.649 327.88L275.705 327.98L275.646 327.932C274.438 326.98 273.832 325.49 272.781 324.447L272.871 324.389C272.292 323.748 271.658 323.148 270.975 322.594C270.81 322.396 270.746 322.019 270.922 322.033C270.447 321.683 270.066 321.241 269.808 320.742C270.393 321.152 269.796 320.473 270.362 321.192C269.882 320.478 269.898 320.233 269.059 319.682C269.489 319.773 268.926 318.992 268.594 318.722L268.821 319.295C268.524 318.985 268.251 318.657 268.006 318.312L268.447 318.282C267.672 316.682 265.778 316.248 265.519 314.808C265.009 314.589 265.99 315.644 265.477 315.486C265.166 314.912 264.91 314.315 264.713 313.702C264.161 312.736 263.609 313.195 262.971 312.225C262.961 312.41 262.768 312.708 262.107 312.107C261.623 311.455 261.909 311.04 262.325 311.378C262.46 311.521 262.486 311.616 262.445 311.634C262.653 311.81 262.921 312.044 262.828 311.72L262.654 311.71C262.503 311.327 261.771 310.475 262.114 310.561C261.617 310.156 261.771 310.475 262.009 310.862C261.491 309.958 260.964 309.607 260.376 308.713C260.427 308.883 260.403 309.088 260.295 308.957C259.412 307.659 259.647 308.559 258.913 307.77C258.684 307.196 259.44 307.678 258.612 306.944C258.299 306.367 258.805 306.648 259.059 306.791C258.462 306.229 257.998 305.566 257.694 304.841L258.111 305.18C257.897 304.999 257.704 304.8 257.536 304.584L257.513 304.953C257.355 304.695 257.19 304.498 257.283 304.443C256.942 304.297 257.083 304.863 256.494 304.515C256.342 304.133 255.587 303.649 255.779 303.353C256.5 304.392 255.972 303.056 256.709 303.85C256.512 303.678 256.348 303.479 256.222 303.26C256.224 303.204 256.308 303.254 256.378 303.307C255.848 302.205 255.699 303.092 254.895 302.121C255.157 302.137 255.009 301.695 254.843 301.56C255.166 301.951 254.734 301.924 254.312 301.648C253.916 300.945 253.655 301.036 253.398 300.701L253.65 301.111C253.386 301.092 253.147 300.768 252.735 300.369C252.827 300.249 253.149 300.704 253.074 300.514C252.392 300.221 252.454 299.236 251.705 298.693C251.553 298.311 251.978 298.463 251.823 298.142C250.988 297.53 251.36 297.184 250.529 296.51C250.506 296.88 250.591 296.885 249.918 296.469L251.154 297.664L250.147 297.041C250.471 297.434 250.973 297.776 251.133 298.035C250.626 297.755 250.714 297.76 250.693 298.066C250.565 297.317 249.617 297.131 249.315 296.367L249.86 296.032C249.316 294.944 248.203 294.561 247.324 293.265L247.557 293.714C247.211 293.693 246.903 292.989 246.49 292.655C246.697 292.573 246.557 292.285 246.527 292.045C246.412 292.153 245.798 291.153 245.353 291.28L245.133 290.585C244.462 289.606 243.559 289.645 242.684 288.489C242.868 288.53 242.863 288.376 242.897 288.281C242.934 288.191 243.012 288.162 243.472 288.581C243.055 288.082 242.68 287.574 242.647 287.762C242.617 287.7 242.579 287.642 242.534 287.587L242.457 287.498C242.428 287.471 242.392 287.547 242.357 287.571L241.885 288.09C241.653 288.407 241.352 288.677 240.999 288.886C240.843 289.143 240.894 289.388 240.439 289.762C240.36 289.775 240.371 289.685 240.371 289.685C240.392 289.807 239.882 290.287 240.359 290.184C238.915 290.569 237.658 292.522 236.384 292.822C235.728 293.438 234.917 294.162 234.27 294.672C234.269 294.595 234.2 294.596 234.339 294.516C233.305 295.069 234.199 295.378 233.007 295.997C232.247 296.147 233.437 295.453 233.019 295.607C232.41 295.214 231.83 296.612 230.847 296.819L230.992 296.666C230.301 296.885 229.84 297.803 228.904 298.383C228.904 298.383 228.909 298.307 228.843 298.301C228.201 299.141 227.413 299.885 226.509 300.504C226.621 300.121 226.826 300.137 226.489 300.035C226.113 300.318 226.877 300.297 226.123 300.863C225.773 300.916 225.119 301.181 224.864 300.997L225.609 300.513C224.999 300.469 224.64 301.13 224.198 301.322L224.151 301.162C223.022 301.913 223.237 302.239 221.945 302.956L222.148 302.979C221.679 303.709 221.427 303.123 220.893 303.759L220.45 303.539C219.746 304.151 218.995 304.72 218.204 305.241C218.729 304.657 219.312 304.117 219.947 303.627C219.308 303.918 218.732 304.307 218.242 304.774C218.41 304.644 218.593 304.436 218.813 304.392C218.289 305.058 217.58 305.592 216.756 305.94C216.677 305.548 215.736 305.928 214.597 306.426L214.166 306.614L213.947 306.71C213.876 306.743 213.761 306.766 213.855 306.832C214.03 307.056 214.199 307.278 214.347 307.49C214.611 307.821 214.799 308.196 214.9 308.593C215.141 308.838 215.379 309.08 215.617 309.321C215.776 309.484 215.927 309.651 216.073 309.824C216.366 310.168 216.638 310.53 216.91 310.904C217.453 311.652 217.994 312.446 218.687 313.235C218.743 312.309 219.095 313.694 219.56 313.229C219.904 313.574 220.015 313.723 220.011 313.782L219.969 313.69L220.011 313.788L220.012 313.787L220.635 315.137C220.701 315.513 220.216 314.863 220.122 314.979C220.766 315.826 220.178 315.478 220.487 316.117C220.589 315.875 221.006 316.214 221.322 316.731L221.024 315.905C222.274 316.854 221.394 317.202 222.649 318.162L222.171 317.912C222.769 318.436 223.998 320.098 224.924 320.384C224.949 320.531 224.915 320.769 224.657 320.535C225.777 321.994 227.765 323.37 228.416 324.651L228.192 324.633C228.452 324.871 228.829 324.924 228.971 325.345C228.902 325.365 228.748 325.328 228.843 325.456C229.256 325.706 229.608 326.028 229.88 326.401L229.479 326.203C230.461 327.701 231.621 328.075 232.683 329.171C232.287 329.432 233.069 330.603 233.459 331.188L233.388 331.206C234.626 332.584 235.968 333.886 237.405 335.1C237.751 336.31 239.849 338.349 240.853 339.994C240.734 339.719 241.191 339.825 241.452 340.062C241.664 340.464 242.533 340.842 242.125 341.029L242.028 340.9C241.893 341.4 242.588 342.053 243.046 342.618L243.597 342.394C244.135 344.316 247.061 346.055 247.114 347.265C247.528 347.539 247.893 347.977 248.304 348.247L248.035 348.398C248.704 349.339 249.441 350.24 250.241 351.096L249.853 350.971C250.408 351.664 251.305 351.342 251.847 351.961L251.628 352.403C252.63 353.588 253.307 355.014 254.635 355.959C254.564 355.977 254.425 356.015 254.248 355.833C254.708 356.4 255.807 358.17 256.156 357.619C255.83 357.859 257.152 358.867 257.839 359.41L257.506 359.477C258.133 359.662 258.687 360.004 259.104 360.462C259.222 360.663 259.036 360.753 258.9 360.472C259.27 361.157 259.527 360.779 260.001 361.593L259.615 361.43C259.72 361.607 259.864 361.763 260.037 361.889C260.211 362.016 260.411 362.11 260.626 362.165C261.05 362.485 261.541 363.374 261.392 363.616C261.587 363.646 261.771 363.717 261.93 363.823C262.089 363.929 262.217 364.067 262.304 364.226C262.259 364.332 262.096 364.236 262.014 364.187C262.707 365.329 263.586 365.521 263.934 366.392C263.904 366.421 263.884 366.457 263.875 366.496C263.867 366.535 263.87 366.575 263.886 366.612C263.207 365.791 262.669 365.124 262.739 365.173C262.509 365.327 263.022 366.014 262.264 365.702C263.112 366.167 263.853 366.772 264.448 367.484C264.455 367.531 264.453 367.578 264.44 367.623L264.359 367.573C264.453 367.723 264.582 367.853 264.737 367.955C264.844 368.157 264.97 368.351 265.114 368.534C264.987 368.738 265.646 369.359 265.912 369.695C266.141 369.499 266.462 369.957 266.331 369.414C266.357 369.478 266.249 369.372 266.055 369.16C266.012 369.115 265.964 369.074 265.912 369.037L265.953 369.045L265.25 368.238C265.447 368.318 265.624 368.433 265.77 368.576C265.915 368.718 266.027 368.887 266.096 369.07C266.4 369.13 266.722 369.205 266.888 369.257C266.914 369.942 267.452 370.937 267.337 371.203C267.829 371.658 268.348 372.234 268.87 372.736C269.121 372.98 269.388 373.211 269.668 373.429C269.928 373.678 270.239 373.88 270.585 374.023C270.727 374.143 270.827 374.298 270.873 374.468C270.918 374.614 270.988 374.6 271.07 374.641C270.991 374.684 270.906 374.717 270.817 374.741L270.65 374.578C270.57 374.488 270.473 374.412 270.364 374.352C270.586 374.484 270.736 374.968 271.167 374.663L272.28 374.258C272.539 374.172 272.786 374.06 273.017 373.925C273.178 373.825 273.281 373.726 273.289 373.624C274.302 373.444 272.89 374.132 274.171 373.612L274.04 373.78C276.899 373.396 277.734 371.37 280.773 370.712C280.561 370.763 280.457 370.79 280.385 370.754C283.645 369.527 286.225 367.067 289.201 365.491C290.032 365.012 289.922 364.754 290.23 364.269L290.613 364.365L291.1 363.497C291.925 362.426 293.475 362.462 294.334 360.929L294.005 360.944C294.491 360.548 295.282 359.483 295.411 359.714C295.398 359.637 295.412 359.559 295.452 359.49C295.492 359.42 295.556 359.365 295.634 359.33L295.781 359.42C296.058 359 296.313 358.567 296.578 358.144C297.463 357.352 297.013 358.688 298.171 357.422C298.535 356.902 298.944 355.776 298.693 355.894ZM292.681 348.817C292.689 348.844 292.693 348.873 292.691 348.902L292.468 348.637C292.538 348.694 292.606 348.749 292.681 348.817ZM265.542 368.985L265.594 368.99C265.529 369.005 265.46 369.004 265.395 368.988C265.176 368.793 265.164 368.687 265.191 368.622C265.282 368.723 265.391 368.838 265.542 368.985V368.985Z" fill="#6DCCA2"/>
<path d="M266.055 369.154C266.089 369.178 266.12 369.204 266.149 369.232C266.135 369.175 266.117 369.119 266.096 369.064L265.953 369.039L266.055 369.154Z" fill="#7F77FF"/>
<path d="M275.63 327.844C275.642 327.871 275.647 327.9 275.646 327.929C275.645 327.912 275.646 327.894 275.649 327.877L275.63 327.844Z" fill="#7F77FF"/>
<path d="M289.868 344.393C289.257 343.124 289.836 344.76 288.939 343.617L289.581 344.518C289.553 344.304 289.52 344.021 289.868 344.393Z" fill="#7F77FF"/>
<path d="M287.076 340.767C286.744 340.535 286.662 340.48 286.864 340.879C287.293 341.307 287.001 340.779 287.076 340.767Z" fill="#7F77FF"/>
<path d="M270.85 321.779L271.118 321.672C270.789 321.341 271.026 321.728 270.85 321.779Z" fill="#7F77FF"/>
<path d="M266.59 315.8L266.013 315.266L266.428 315.667L266.59 315.8Z" fill="#7F77FF"/>
<path d="M236.92 291.977L237.266 292.12C237.468 291.878 237.251 291.575 236.92 291.977Z" fill="#7F77FF"/>
<path d="M221.006 303.142C221.344 303.025 221.671 302.883 221.984 302.719C221.795 302.715 221.608 302.751 221.437 302.825C221.267 302.898 221.119 303.007 221.006 303.142Z" fill="#7F77FF"/>
<path d="M243.495 343.109L244.013 343.581L243.823 343.325L243.495 343.109Z" fill="#7F77FF"/>
<path d="M100.536 264.874L102.573 317.345L134.454 384.243C134.454 384.243 126.138 418.931 142.771 417.692C159.405 416.454 144.157 383.005 144.157 383.005L128.91 312.39L126.138 254.164L100.536 264.874Z" fill="#F5D4B2"/>
<path d="M112.276 228.149L113.038 223.469L119.207 225.672L138.613 252.926L98.4146 271.509L112.276 228.149Z" fill="#CFCCE0"/>
</svg>
