<?xml version="1.0" encoding="UTF-8"?>
<svg width="166px" height="131px" viewBox="0 0 166 131" version="1.1" xmlns="http://www.w3.org/2000/svg" xmlns:xlink="http://www.w3.org/1999/xlink">
    <title>ikona_do poczytania-01@1x</title>
    <g id="1920" stroke="none" stroke-width="1" fill="none" fill-rule="evenodd">
        <g id="1920_2" transform="translate(-256.000000, -1735.000000)" fill-rule="nonzero">
            <g id="icon" transform="translate(159.637474, 1663.889005)">
                <g id="ikona_do-poczytania-01" transform="translate(52.322495, 49.029583)">
                    <g id="ikona_x5F_do_poczytania" transform="translate(44.694800, 22.426199)">
                        <path d="M82.3092356,130.544218 C80.7604059,130.544218 79.6540989,129.437911 79.6540989,127.889081 C79.6540989,117.268535 72.794996,108.860602 64.3870633,108.860602 L10.3992851,108.860602 C8.85045544,108.860602 7.74414851,107.754295 7.74414851,106.205465 L7.74414851,2.65513663 C7.74414851,1.10630693 8.85045544,0 10.3992851,0 L64.1658019,0 C75.4501326,0 84.7431108,10.8418079 84.7431108,24.3387525 L84.7431108,127.889081 C84.9643722,129.437911 83.6368039,130.544218 82.3092356,130.544218 Z M13.0544218,103.550329 L64.1658019,103.550329 C70.3611207,103.550329 75.671394,106.647988 79.4328375,111.737 L79.4328375,24.3387525 C79.4328375,13.7182059 72.5737346,5.31027326 64.1658019,5.31027326 L13.0544218,5.31027326 L13.0544218,103.550329 Z" id="Shape" fill="#566478"></path>
                        <path d="M82.3092356,130.544218 C80.7604059,130.544218 79.6540989,129.437911 79.6540989,127.889081 L79.6540989,24.3387525 C79.6540989,10.8418079 88.9470771,0 100.231408,0 L153.997925,0 C155.546754,0 156.653061,1.10630693 156.653061,2.65513663 L156.653061,106.205465 C156.653061,107.754295 155.546754,108.860602 153.997925,108.860602 L100.231408,108.860602 C91.8234752,108.860602 84.9643722,117.489796 84.9643722,127.889081 C84.9643722,129.437911 83.6368039,130.544218 82.3092356,130.544218 Z M100.231408,5.31027326 C91.8234752,5.31027326 84.9643722,13.9394673 84.9643722,24.3387525 L84.9643722,111.737 C88.7258158,106.647988 94.2573504,103.550329 100.231408,103.550329 L151.342788,103.550329 L151.342788,5.31027326 L100.231408,5.31027326 Z" id="Shape" fill="#566478"></path>
                        <path d="M161.963334,120.587455 L108.418079,120.587455 C106.869249,120.587455 105.762942,119.481148 105.762942,117.932319 C105.762942,116.383489 106.869249,115.277182 108.418079,115.277182 L159.308198,115.277182 L159.308198,15.2670356 L153.997925,15.2670356 C152.449095,15.2670356 151.342788,14.1607287 151.342788,12.611899 C151.342788,11.0630693 152.449095,9.95676237 153.997925,9.95676237 L161.963334,9.95676237 C163.512164,9.95676237 164.618471,11.0630693 164.618471,12.611899 L164.618471,117.932319 C164.618471,119.481148 163.512164,120.587455 161.963334,120.587455 Z" id="Path" fill="#566478"></path>
                        <path d="M108.418079,130.544218 L82.3092356,130.544218 C80.7604059,130.544218 79.6540989,129.437911 79.6540989,127.889081 C79.6540989,126.340251 80.7604059,125.233944 82.3092356,125.233944 L108.418079,125.233944 C109.966909,125.233944 111.073216,126.340251 111.073216,127.889081 C111.073216,129.437911 109.966909,130.544218 108.418079,130.544218 Z" id="Path" fill="#566478"></path>
                        <path d="M82.3092356,130.544218 L55.9791306,130.544218 C54.4303009,130.544218 53.323994,129.437911 53.323994,127.889081 C53.323994,126.340251 54.4303009,125.233944 55.9791306,125.233944 L82.0879742,125.233944 C83.6368039,125.233944 84.7431108,126.340251 84.7431108,127.889081 C84.9643722,129.437911 83.6368039,130.544218 82.3092356,130.544218 Z" id="Path" fill="#566478"></path>
                        <path d="M55.9791306,120.587455 L2.65513663,120.587455 C1.10630693,120.587455 0,119.481148 0,117.932319 L0,12.611899 C0,11.0630693 1.10630693,9.95676237 2.65513663,9.95676237 L10.6205465,9.95676237 C12.1693762,9.95676237 13.2756832,11.0630693 13.2756832,12.611899 C13.2756832,14.1607287 12.1693762,15.2670356 10.6205465,15.2670356 L5.31027326,15.2670356 L5.31027326,115.277182 L56.200392,115.277182 C57.7492217,115.277182 58.8555287,116.383489 58.8555287,117.932319 C58.6342673,119.481148 57.5279603,120.587455 55.9791306,120.587455 Z" id="Path" fill="#566478"></path>
                        <g id="Group" transform="translate(20.134786, 11.948115)">
                            <path d="M9.29297821,83.4155425 L4.20396633,83.4155425 C2.65513663,83.4155425 1.5488297,82.3092356 1.5488297,80.7604059 C1.5488297,79.2115762 2.65513663,78.1052692 4.20396633,78.1052692 L9.29297821,78.1052692 C10.8418079,78.1052692 11.9481148,79.2115762 11.9481148,80.7604059 C11.7268535,82.0879742 10.6205465,83.4155425 9.29297821,83.4155425 Z" id="Path" fill="#98DAC1"></path>
                            <path d="M43.588493,83.4155425 L22.5686614,83.4155425 C21.0198317,83.4155425 19.9135247,82.3092356 19.9135247,80.7604059 C19.9135247,79.2115762 21.0198317,78.1052692 22.5686614,78.1052692 L43.588493,78.1052692 C45.1373227,78.1052692 46.2436297,79.2115762 46.2436297,80.7604059 C46.2436297,82.0879742 45.1373227,83.4155425 43.588493,83.4155425 Z" id="Path" fill="#98DAC1"></path>
                            <path d="M38.0569584,70.8036435 L43.1459703,70.8036435 C44.6948,70.8036435 45.8011069,69.6973366 45.8011069,68.1485069 C45.8011069,66.5996772 44.6948,65.4933702 43.1459703,65.4933702 L38.0569584,65.4933702 C36.5081287,65.4933702 35.4018217,66.5996772 35.4018217,68.1485069 C35.4018217,69.6973366 36.5081287,70.8036435 38.0569584,70.8036435 Z" id="Path" fill="#98DAC1"></path>
                            <path d="M3.76144356,70.8036435 L24.7812752,70.8036435 C26.3301049,70.8036435 27.4364119,69.6973366 27.4364119,68.1485069 C27.4364119,66.5996772 26.3301049,65.4933702 24.7812752,65.4933702 L3.76144356,65.4933702 C2.21261386,65.4933702 1.10630693,66.5996772 1.10630693,68.1485069 C1.10630693,69.6973366 2.21261386,70.8036435 3.76144356,70.8036435 Z" id="Path" fill="#98DAC1"></path>
                            <path d="M8.18667128,57.9704831 L3.31892079,57.9704831 C1.77009109,57.9704831 0.663784158,56.8641762 0.663784158,55.3153465 C0.663784158,53.7665168 1.77009109,52.6602098 3.31892079,52.6602098 L8.40793266,52.6602098 C9.95676237,52.6602098 11.0630693,53.7665168 11.0630693,55.3153465 C10.8418079,56.8641762 9.73550098,57.9704831 8.18667128,57.9704831 Z" id="Path" fill="#566478"></path>
                            <path d="M42.7034475,57.9704831 L21.6836158,57.9704831 C20.1347861,57.9704831 19.0284792,56.8641762 19.0284792,55.3153465 C19.0284792,53.7665168 20.1347861,52.6602098 21.6836158,52.6602098 L42.7034475,52.6602098 C44.2522772,52.6602098 45.3585841,53.7665168 45.3585841,55.3153465 C45.3585841,56.8641762 44.0310158,57.9704831 42.7034475,57.9704831 Z" id="Path" fill="#566478"></path>
                            <path d="M36.9506514,43.588493 L42.0396633,43.588493 C43.588493,43.588493 44.6948,42.4821861 44.6948,40.9333564 C44.6948,39.3845267 43.588493,38.2782198 42.0396633,38.2782198 L36.9506514,38.2782198 C35.4018217,38.2782198 34.2955148,39.3845267 34.2955148,40.9333564 C34.5167762,42.4821861 35.6230831,43.588493 36.9506514,43.588493 Z" id="Path" fill="#566478"></path>
                            <path d="M2.65513663,43.588493 L23.6749683,43.588493 C25.223798,43.588493 26.3301049,42.4821861 26.3301049,40.9333564 C26.3301049,39.3845267 25.223798,38.2782198 23.6749683,38.2782198 L2.65513663,38.2782198 C1.10630693,38.2782198 0,39.3845267 0,40.9333564 C0.221261386,42.4821861 1.32756832,43.588493 2.65513663,43.588493 Z" id="Path" fill="#566478"></path>
                            <path d="M8.85045544,31.1978554 L3.76144356,31.1978554 C2.21261386,31.1978554 1.10630693,30.0915485 1.10630693,28.5427188 C1.10630693,26.9938891 2.21261386,25.8875822 3.76144356,25.8875822 L8.85045544,25.8875822 C10.3992851,25.8875822 11.5055921,26.9938891 11.5055921,28.5427188 C11.2843307,30.0915485 10.1780238,31.1978554 8.85045544,31.1978554 Z" id="Path" fill="#98DAC1"></path>
                            <path d="M43.1459703,31.1978554 L22.1261386,31.1978554 C20.5773089,31.1978554 19.471002,30.0915485 19.471002,28.5427188 C19.471002,26.9938891 20.5773089,25.8875822 22.1261386,25.8875822 L43.1459703,25.8875822 C44.6948,25.8875822 45.8011069,26.9938891 45.8011069,28.5427188 C45.8011069,30.0915485 44.6948,31.1978554 43.1459703,31.1978554 Z" id="Path" fill="#98DAC1"></path>
                            <path d="M37.3931742,18.8072178 L42.4821861,18.8072178 C44.0310158,18.8072178 45.1373227,17.7009109 45.1373227,16.1520812 C45.1373227,14.6032515 44.0310158,13.4969445 42.4821861,13.4969445 L37.3931742,13.4969445 C35.8443445,13.4969445 34.7380376,14.6032515 34.7380376,16.1520812 C34.959299,17.4796495 36.0656059,18.8072178 37.3931742,18.8072178 Z" id="Path" fill="#98DAC1"></path>
                            <path d="M3.0976594,18.8072178 L24.1174911,18.8072178 C25.6663208,18.8072178 26.7726277,17.7009109 26.7726277,16.1520812 C26.7726277,14.6032515 25.6663208,13.4969445 24.1174911,13.4969445 L3.0976594,13.4969445 C1.5488297,13.4969445 0.442522772,14.6032515 0.442522772,16.1520812 C0.663784158,17.4796495 1.77009109,18.8072178 3.0976594,18.8072178 Z" id="Path" fill="#98DAC1"></path>
                            <path d="M7.74414851,5.75279603 L2.65513663,5.75279603 C1.10630693,5.75279603 0,4.6464891 0,3.0976594 C0,1.5488297 1.10630693,0.442522772 2.65513663,0.442522772 L7.74414851,0.442522772 C9.29297821,0.442522772 10.3992851,1.5488297 10.3992851,3.0976594 C10.3992851,4.6464891 9.29297821,5.75279603 7.74414851,5.75279603 Z" id="Path" fill="#98DAC1"></path>
                            <path d="M42.2609247,5.75279603 L21.0198317,5.75279603 C19.471002,5.75279603 18.364695,4.6464891 18.364695,3.0976594 C18.364695,1.5488297 19.471002,0.442522772 21.0198317,0.442522772 L42.0396633,0.442522772 C43.588493,0.442522772 44.6948,1.5488297 44.6948,3.0976594 C44.9160613,4.6464891 43.588493,5.75279603 42.2609247,5.75279603 Z" id="Path" fill="#98DAC1"></path>
                            <path d="M113.728352,82.7517583 L118.817364,82.7517583 C120.366194,82.7517583 121.472501,81.6454514 121.472501,80.0966217 C121.472501,78.547792 120.366194,77.4414851 118.817364,77.4414851 L113.728352,77.4414851 C112.179523,77.4414851 111.073216,78.547792 111.073216,80.0966217 C111.073216,81.6454514 112.179523,82.7517583 113.728352,82.7517583 Z" id="Path" fill="#98DAC1"></path>
                            <path d="M79.4328375,82.7517583 L100.452669,82.7517583 C102.001499,82.7517583 103.107806,81.6454514 103.107806,80.0966217 C103.107806,78.547792 102.001499,77.4414851 100.452669,77.4414851 L79.4328375,77.4414851 C77.8840078,77.4414851 76.7777009,78.547792 76.7777009,80.0966217 C76.7777009,81.6454514 77.8840078,82.7517583 79.4328375,82.7517583 Z" id="Path" fill="#98DAC1"></path>
                            <path d="M84.9643722,70.1398593 L79.8753603,70.1398593 C78.3265306,70.1398593 77.2202237,69.0335524 77.2202237,67.4847227 C77.2202237,65.935893 78.3265306,64.8295861 79.8753603,64.8295861 L84.9643722,64.8295861 C86.5132019,64.8295861 87.6195088,65.935893 87.6195088,67.4847227 C87.6195088,69.0335524 86.5132019,70.1398593 84.9643722,70.1398593 Z" id="Path" fill="#98DAC1"></path>
                            <path d="M119.259887,70.1398593 L98.2400553,70.1398593 C96.6912256,70.1398593 95.5849187,69.0335524 95.5849187,67.4847227 C95.5849187,65.935893 96.6912256,64.8295861 98.2400553,64.8295861 L119.259887,64.8295861 C120.808717,64.8295861 121.915024,65.935893 121.915024,67.4847227 C121.915024,69.0335524 120.808717,70.1398593 119.259887,70.1398593 Z" id="Path" fill="#98DAC1"></path>
                            <path d="M114.613398,57.306699 L119.70241,57.306699 C121.251239,57.306699 122.357546,56.200392 122.357546,54.6515623 C122.357546,53.1027326 121.251239,51.9964257 119.70241,51.9964257 L114.613398,51.9964257 C113.064568,51.9964257 111.958261,53.1027326 111.958261,54.6515623 C111.958261,56.200392 113.28583,57.306699 114.613398,57.306699 Z" id="Path" fill="#566478"></path>
                            <path d="M80.3178831,57.306699 L101.337715,57.306699 C102.886544,57.306699 103.992851,56.200392 103.992851,54.6515623 C103.992851,53.1027326 102.886544,51.9964257 101.337715,51.9964257 L80.3178831,51.9964257 C78.7690534,51.9964257 77.6627465,53.1027326 77.6627465,54.6515623 C77.6627465,56.200392 78.7690534,57.306699 80.3178831,57.306699 Z" id="Path" fill="#566478"></path>
                            <path d="M85.8494177,43.1459703 L80.7604059,43.1459703 C79.2115762,43.1459703 78.1052692,42.0396633 78.1052692,40.4908336 C78.1052692,38.9420039 79.2115762,37.835697 80.7604059,37.835697 L85.8494177,37.835697 C87.3982474,37.835697 88.5045544,38.9420039 88.5045544,40.4908336 C88.5045544,41.8184019 87.3982474,43.1459703 85.8494177,43.1459703 Z" id="Path" fill="#98DAC1"></path>
                            <path d="M120.144933,43.1459703 L99.1251009,43.1459703 C97.5762712,43.1459703 96.4699643,42.0396633 96.4699643,40.4908336 C96.4699643,38.9420039 97.5762712,37.835697 99.1251009,37.835697 L120.144933,37.835697 C121.693762,37.835697 122.800069,38.9420039 122.800069,40.4908336 C122.800069,41.8184019 121.693762,43.1459703 120.144933,43.1459703 Z" id="Path" fill="#98DAC1"></path>
                            <path d="M114.170875,30.5340713 L119.259887,30.5340713 C120.808717,30.5340713 121.915024,29.4277643 121.915024,27.8789346 C121.915024,26.3301049 120.808717,25.223798 119.259887,25.223798 L114.170875,25.223798 C112.622045,25.223798 111.515738,26.3301049 111.515738,27.8789346 C111.515738,29.4277643 112.843307,30.5340713 114.170875,30.5340713 Z" id="Path" fill="#98DAC1"></path>
                            <path d="M79.8753603,30.5340713 L100.895192,30.5340713 C102.444022,30.5340713 103.550329,29.4277643 103.550329,27.8789346 C103.550329,26.3301049 102.444022,25.223798 100.895192,25.223798 L79.8753603,25.223798 C78.3265306,25.223798 77.2202237,26.3301049 77.2202237,27.8789346 C77.2202237,29.4277643 78.3265306,30.5340713 79.8753603,30.5340713 Z" id="Path" fill="#98DAC1"></path>
                            <path d="M85.406895,18.1434336 L80.3178831,18.1434336 C78.7690534,18.1434336 77.6627465,17.0371267 77.6627465,15.488297 C77.6627465,13.9394673 78.7690534,12.8331604 80.3178831,12.8331604 L85.406895,12.8331604 C86.9557247,12.8331604 88.0620316,13.9394673 88.0620316,15.488297 C88.0620316,16.8158653 86.9557247,18.1434336 85.406895,18.1434336 Z" id="Path" fill="#566478"></path>
                            <path d="M119.70241,18.1434336 L98.6825781,18.1434336 C97.1337484,18.1434336 96.0274415,17.0371267 96.0274415,15.488297 C96.0274415,13.9394673 97.1337484,12.8331604 98.6825781,12.8331604 L119.70241,12.8331604 C121.251239,12.8331604 122.357546,13.9394673 122.357546,15.488297 C122.357546,16.8158653 121.251239,18.1434336 119.70241,18.1434336 Z" id="Path" fill="#566478"></path>
                            <path d="M115.055921,5.31027326 L120.144933,5.31027326 C121.693762,5.31027326 122.800069,4.20396633 122.800069,2.65513663 C122.800069,1.10630693 121.693762,0 120.144933,0 L115.055921,0 C113.507091,0 112.400784,1.10630693 112.400784,2.65513663 C112.400784,3.98270495 113.728352,5.31027326 115.055921,5.31027326 Z" id="Path" fill="#566478"></path>
                            <path d="M80.7604059,5.31027326 L101.780238,5.31027326 C103.329067,5.31027326 104.435374,4.20396633 104.435374,2.65513663 C104.435374,1.10630693 103.329067,0 101.780238,0 L80.7604059,0 C79.2115762,0 78.1052692,1.10630693 78.1052692,2.65513663 C78.1052692,3.98270495 79.2115762,5.31027326 80.7604059,5.31027326 Z" id="Path" fill="#566478"></path>
                        </g>
                    </g>
                </g>
            </g>
        </g>
    </g>
</svg>