<?xml version="1.0" encoding="UTF-8"?>
<svg width="271px" height="156px" viewBox="0 0 271 156" version="1.1" xmlns="http://www.w3.org/2000/svg" xmlns:xlink="http://www.w3.org/1999/xlink">
    <title>ikona_na zywo-01@1x</title>
    <g id="1920" stroke="none" stroke-width="1" fill="none" fill-rule="evenodd">
        <g id="1920_2" transform="translate(-617.000000, -1720.000000)" fill-rule="nonzero">
            <g id="icon" transform="translate(159.637474, 1663.889005)">
                <g id="ikona_na-zywo-01" transform="translate(457.744433, 56.679163)">
                    <g id="ikona_x5F_na_zywo" transform="translate(0.000000, 0.000000)">
                        <g id="Group" fill="#566478">
                            <g transform="translate(0.000000, 79.746969)" id="Path">
                                <path d="M4.23543601,37.4130181 L0,37.4130181 C0,27.0597301 9.64738203,22.8242941 19.0594621,18.5888581 C28.7068441,14.3534221 37.8836221,10.117986 37.8836221,0.235302001 L42.1190581,0.235302001 C42.1190581,12.94161 30.8245621,18.1182541 20.7065761,22.5889921 C12.000402,26.3538241 4.23543601,29.8833541 4.23543601,37.4130181 Z"></path>
                                <path d="M98.8268403,37.4130181 L94.5914043,37.4130181 C94.5914043,29.8833541 86.8264383,26.3538241 77.8849623,22.3536901 C67.7669762,17.8829521 56.4724802,12.706308 56.4724802,0 L60.7079162,0 C60.7079162,9.88268403 69.8846942,14.11812 79.5320763,18.3535561 C89.1794583,22.8242941 98.8268403,27.0597301 98.8268403,37.4130181 Z"></path>
                            </g>
                            <path d="M49.4134202,83.9824053 C36.0012061,83.9824053 24.7067101,72.9232113 21.1771801,56.6873732 C17.4123481,55.9814672 14.3534221,51.9813332 14.3534221,46.8046892 C14.3534221,41.6280452 17.1770461,37.3926091 21.1771801,36.9220051 C21.6477841,35.2748911 22.1183881,33.3924751 22.1183881,33.1571731 C24.9420121,25.1569051 31.7657701,24.4509991 36.7071121,23.7450931 C38.3542261,23.5097911 39.7660381,23.5097911 40.9425481,23.0391871 C44.0014742,22.0979791 48.2369102,20.9214691 51.7664402,13.8624091 L53.6488562,9.86227505 L55.5312722,13.8624091 C58.8255002,20.6861671 62.8256342,22.3332811 66.8257682,23.9803951 C70.3552982,25.3922071 74.1201303,26.8040191 76.0025463,31.7453611 C76.4731503,33.3924751 76.9437543,35.0395891 77.4143583,36.6867031 C81.1791903,37.3926091 84.2381163,41.3927432 84.2381163,46.5693872 C84.2381163,51.7460312 81.4144923,55.9814672 77.4143583,56.4520712 C74.1201303,72.9232113 62.8256342,83.9824053 49.4134202,83.9824053 Z M24.7067101,52.2166352 L25.1773141,54.3343532 C27.7656361,69.1583793 38.1189241,79.9822713 49.6487222,79.9822713 C61.1785202,79.9822713 71.5318083,69.1583793 74.1201303,54.3343532 L74.5907343,52.2166352 L76.9437543,52.6872392 C79.0614723,52.6872392 80.7085863,50.0989172 80.7085863,46.8046892 C80.7085863,43.7457632 79.0614723,40.9221392 77.1790563,40.9221392 L74.8260363,41.3927432 L74.3554323,39.2750252 C73.8848283,37.1573071 73.4142243,35.2748911 72.7083183,33.3924751 C71.5318083,30.3335491 69.1787882,29.3923411 65.8845602,27.9805291 C62.1197282,26.5687171 57.8842922,24.6863011 54.1194602,19.2743551 C50.1193262,25.1569051 45.6485882,26.3334151 42.5896621,27.2746231 C40.9425481,27.7452271 39.2954341,27.9805291 37.4130181,28.2158311 C32.4716761,28.6864351 28.4715421,29.1570391 26.3538241,34.5689851 C26.3538241,34.5689851 25.4126161,37.8632132 25.1773141,39.5103272 L24.7067101,41.6280452 L22.3536901,41.1574412 C20.4712741,41.1574412 18.8241601,43.9810652 18.8241601,47.0399912 C18.8241601,50.0989172 20.4712741,52.9225412 22.3536901,52.9225412 L24.7067101,52.2166352 Z" id="Shape"></path>
                            <path d="M10.117986,105.865491 C6.11785202,102.335961 3.76483201,95.9828074 4.23543601,89.8649553 C4.70604002,83.2764993 8.00026803,77.3939493 13.882818,72.9232113 C-1.17651,48.6871052 6.35315402,20.2155631 22.5889921,7.50925504 C35.7659041,-2.84403299 49.1781182,0.214893019 53.4135542,1.15610102 L53.6488562,1.15610102 C57.8842922,1.39140302 65.6492582,2.09730903 72.2377143,5.86214104 C87.2970423,14.5683151 90.5912703,31.7453611 91.5324783,37.3926091 C94.5914043,54.0990512 88.7088543,67.9818693 84.2381163,75.7468353 C88.7088543,77.8645533 91.7677803,81.6293853 92.9442903,86.8060293 C94.5914043,93.3944853 92.7089883,100.924149 88.2382503,105.394887 L85.1793243,102.335961 C88.7088543,98.8064314 90.1206663,92.9238813 88.7088543,87.7472373 C88.0029483,84.6883113 85.8852303,80.4528753 80.4732843,78.8057613 L77.8849623,77.8645533 L79.2967743,75.5115333 C82.8263043,70.0995873 90.5912703,55.5108632 87.2970423,38.0985152 C86.3558343,32.9218711 83.5322103,17.1566371 70.1199962,9.39167105 C64.2374462,6.09744304 57.1783862,5.39153704 53.4135542,5.15623504 L52.7076482,4.92093304 C48.9428162,3.97972503 36.9424141,1.39140302 25.4126161,10.5681811 C9.88268403,22.5685831 3.05892601,49.6283132 18.3535561,72.2173053 L19.5300661,74.0997213 L17.6476501,75.2762313 C10.353288,80.2175733 8.47087203,86.1001233 8.23557003,90.1002573 C8.00026803,95.0415994 9.64738203,99.9829414 12.94161,102.806565 L10.117986,105.865491 Z" id="Path"></path>
                            <path d="M49.4134202,113.865759 C38.5895281,113.865759 29.6480521,104.924283 29.6480521,94.1003913 L33.8834881,94.1003913 C33.8834881,102.571263 40.9425481,109.630323 49.4134202,109.630323 C57.8842922,109.630323 64.9433522,102.571263 64.9433522,94.1003913 L69.1787882,94.1003913 C69.1787882,105.159585 60.2373122,113.865759 49.4134202,113.865759 Z" id="Path"></path>
                        </g>
                        <g id="Group" transform="translate(78.355566, 23.039187)" fill="#98DAC1">
                            <g transform="translate(0.000000, 87.061740)" id="Path">
                                <path d="M4.94134202,45.1779842 L0,45.1779842 C0,28.9421461 11.294496,26.1185221 21.1771801,23.5302001 C32.4716761,20.7065761 42.1190581,18.1182541 42.1190581,0 L47.0604002,0 C47.0604002,21.8830861 33.4128841,25.4126161 22.3536901,28.2362401 C12.471006,30.8245621 4.94134202,32.7069781 4.94134202,45.1779842 Z"></path>
                                <path d="M115.768584,45.1779842 L110.827242,45.1779842 C110.827242,32.9422801 103.062276,30.8245621 93.4148943,28.2362401 C82.3557003,25.4126161 68.7081842,21.8830861 68.7081842,0 L73.6495263,0 C73.6495263,17.8829521 83.2969083,20.4712741 94.5914043,23.5302001 C104.474088,25.8832201 115.768584,28.9421461 115.768584,45.1779842 Z"></path>
                            </g>
                            <polygon id="Path" points="57.6489902 124.71006 33.1775821 109.886034 35.7659041 105.650598 57.6489902 119.062812 79.2967743 105.650598 81.8850963 109.886034"></polygon>
                            <path d="M91.7677803,40.7072461 L86.8264383,40.0013401 L88.2382503,28.9421461 C88.2382503,28.4715421 89.6500623,20.4712741 80.4732843,12.94161 C68.7081842,3.29422801 56.0018762,5.17664402 46.5897962,6.58845602 C43.5308702,7.05906002 40.9425481,7.52966403 38.8248301,7.52966403 C33.8834881,7.52966403 29.8833541,6.58845602 27.7656361,5.88255002 C26.8244281,7.52966403 25.4126161,10.58859 25.6479181,15.0593281 C25.8832201,18.3535561 26.3538241,20.9418781 27.0597301,24.0008041 C28.0009381,28.0009381 29.1774481,32.7069781 29.1774481,40.4719441 L24.2361061,40.4719441 C24.2361061,33.4128841 23.2948981,29.1774481 22.3536901,25.1773141 C21.6477841,22.1183881 20.9418781,19.0594621 20.7065761,15.2946301 C20.4712741,6.82375802 24.7067101,1.64711401 24.9420121,1.411812 L26.1185221,0 L27.7656361,0.705906002 C27.7656361,0.705906002 32.4716761,2.58832201 38.8248301,2.58832201 C40.7072461,2.58832201 43.0602662,2.11771801 45.8838902,1.88241601 C55.5312722,0.470604002 70.1199962,-1.88241601 83.7675123,9.41208003 C95.5326123,19.0594621 93.4148943,29.6480521 93.4148943,30.1186561 L91.7677803,40.7072461 Z" id="Path"></path>
                            <path d="M57.8842922,93.4148943 C42.1190581,93.4148943 28.7068441,80.2379823 24.7067101,61.4138222 C20.2359721,60.7079162 16.7064421,55.7665742 16.7064421,49.6487222 C16.7064421,43.5308702 20.0006701,38.8248301 24.7067101,37.8836221 C25.8832201,32.7069781 27.7656361,27.7656361 30.3539581,23.5302001 L31.5304681,21.4124821 L33.6481861,22.5889921 C39.5307361,25.8832201 47.2957022,25.8832201 56.4724802,25.8832201 L59.0608022,25.8832201 C68.2375802,25.8832201 76.2378483,25.8832201 81.8850963,22.5889921 L84.0028143,21.4124821 L85.1793243,23.5302001 C87.7676463,28.0009381 89.6500623,32.7069781 90.8265723,37.8836221 C95.2973103,38.5895281 98.8268403,43.5308702 98.8268403,49.6487222 C98.8268403,55.7665742 95.5326123,60.4726142 90.8265723,61.4138222 C87.0617403,80.2379823 73.6495263,93.4148943 57.8842922,93.4148943 Z M28.7068441,56.0018762 L29.1774481,58.3548962 C32.2363741,75.7672443 44.2367762,88.4735523 57.8842922,88.4735523 C71.5318083,88.4735523 83.5322103,75.7672443 86.5911363,58.3548962 L87.0617403,56.0018762 L89.6500623,56.4724802 C92.0030823,56.4724802 94.1208003,53.4135542 94.1208003,49.6487222 C94.1208003,46.1191922 92.2383843,42.8249642 89.8853643,42.8249642 L89.4147603,42.8249642 L87.0617403,43.2955682 L86.5911363,40.9425481 C85.8852303,36.2365081 84.2381163,32.0010721 82.3557003,28.0009381 C75.7672443,30.8245621 67.7669762,30.8245621 59.2961042,30.8245621 L56.7077822,30.8245621 C48.2369102,30.8245621 40.2366421,30.8245621 33.6481861,28.0009381 C31.5304681,32.0010721 30.1186561,36.2365081 29.4127501,40.9425481 L28.9421461,43.2955682 L26.1185221,42.8249642 C24.0008041,42.8249642 21.8830861,46.1191922 21.8830861,49.6487222 C21.8830861,53.1782522 23.7655021,56.4724802 26.1185221,56.4724802 L28.7068441,56.0018762 Z" id="Shape"></path>
                        </g>
                        <g id="Group" transform="translate(170.829253, 3.350472)" fill="#566478">
                            <g transform="translate(0.000000, 30.277305)" id="Path">
                                <path d="M4.23543601,82.3557003 L0,82.3557003 C0,68.4728822 9.64738203,66.1198622 18.1182541,63.7668422 C27.7656361,61.1785202 36.0012061,59.0608022 36.0012061,43.7661722 L40.2366421,43.7661722 C40.2366421,62.3550302 28.7068441,65.4139562 19.2947641,67.7669762 C10.823892,70.1199962 4.23543601,71.7671103 4.23543601,82.3557003 Z"></path>
                                <path d="M98.8268403,82.3557003 L94.5914043,82.3557003 C94.5914043,71.7671103 88.0029483,70.1199962 79.7673783,68.0022782 C70.3552982,65.6492582 58.8255002,62.5903322 58.8255002,44.0014742 L63.0609362,44.0014742 C63.0609362,59.2961042 71.2965063,61.4138222 80.9438883,64.0021442 C89.1794583,66.1198622 98.8268403,68.4728822 98.8268403,82.3557003 Z"></path>
                                <path d="M49.4134202,49.1781182 C36.0012061,49.1781182 24.7067101,38.1189241 21.1771801,21.8830861 C17.4123481,21.1771801 14.3534221,17.1770461 14.3534221,12.000402 C14.3534221,6.82375802 17.1770461,2.58832201 21.1771801,2.11771801 C21.4124821,1.411812 21.4124821,0.705906002 21.6477841,0 L25.6479181,1.17651 C25.4126161,2.35302001 25.1773141,3.52953001 24.9420121,4.70604002 L24.4714081,6.82375802 L22.1183881,6.35315402 C20.2359721,6.35315402 18.5888581,9.17677803 18.5888581,12.235704 C18.5888581,15.2946301 20.2359721,18.1182541 22.1183881,18.1182541 L24.4714081,17.6476501 L24.9420121,19.7653681 C27.5303341,34.5893941 37.8836221,45.4132862 49.4134202,45.4132862 C60.9432182,45.4132862 71.2965063,34.5893941 73.8848283,19.7653681 L74.3554323,17.6476501 L76.7084523,18.1182541 C78.8261703,18.1182541 80.4732843,15.5299321 80.4732843,12.235704 C80.4732843,9.17677803 78.8261703,6.35315402 76.9437543,6.35315402 L76.7084523,6.35315402 L76.2378483,4.23543601 L76.0025463,2.11771801 C76.2378483,2.11771801 76.7084523,2.11771801 76.9437543,2.11771801 C81.4144923,2.11771801 84.7087203,6.58845602 84.7087203,12.235704 C84.7087203,17.4123481 81.8850963,21.6477841 77.8849623,22.1183881 C74.1201303,38.1189241 62.8256342,49.1781182 49.4134202,49.1781182 Z"></path>
                            </g>
                            <path d="M24.4714081,33.5715329 L22.5889921,32.6303249 C20.2359721,31.4538149 17.8829521,27.6889829 17.1770461,23.6888488 C16.2358381,18.5122048 17.6476501,13.3355608 21.4124821,9.10012479 C27.2950321,2.51166876 32.0010721,1.80576276 42.5896621,1.80576276 C42.5896621,1.80576276 42.8249642,1.80576276 42.8249642,1.80576276 C45.6485882,1.80576276 47.7663062,1.33515876 49.6487222,0.864554756 C52.2370442,0.158648754 54.8253662,-0.547257249 58.5901982,0.629252755 C64.7080502,2.27636676 67.2963722,10.0413328 67.7669762,14.0414668 L68.0022782,14.9826748 L67.5316742,15.6885808 C62.5903322,21.8064328 54.8253662,22.0417348 47.2957022,22.2770368 C42.5896621,22.5123388 38.3542261,22.5123388 34.5893941,24.1594528 C29.6480521,26.2771708 27.7656361,27.6889829 25.4126161,31.9244189 L24.4714081,33.5715329 Z M42.5896621,6.04119877 C32.4716761,6.04119877 29.1774481,6.74710478 24.7067101,11.9237488 C21.1771801,15.9238828 20.9418781,20.1593188 21.4124821,22.9829428 C21.8830861,24.8653588 22.5889921,26.2771708 23.2948981,27.4536808 C25.6479181,23.9241508 28.2362401,22.2770368 32.9422801,20.1593188 C37.1777161,18.2769028 42.3543601,18.0416008 47.0604002,18.0416008 C53.4135542,17.8062988 59.5314062,17.5709968 63.5315402,13.5708628 C63.0609362,10.9825408 61.1785202,5.80589677 57.4136882,4.62938677 C54.8253662,3.92348077 53.1782522,4.39408477 50.5899302,4.86468877 C48.7075142,5.57059477 46.1191922,6.04119877 42.5896621,6.04119877 C42.8249642,6.04119877 42.5896621,6.04119877 42.5896621,6.04119877 Z" id="Shape"></path>
                            <path d="M74.5907343,38.5128749 L73.1789223,36.3951569 C71.2965063,33.3362309 69.8846942,31.2185129 68.7081842,29.1007949 C68.0022782,27.9242849 67.5316742,26.9830768 66.8257682,25.8065668 C64.4727482,22.0417348 63.5315402,17.1003928 63.5315402,14.0414668 L63.5315402,12.6296548 L64.9433522,12.1590508 C67.0610702,11.4531448 69.1787882,10.9825408 71.0612043,11.2178428 C75.7672443,11.9237488 80.0026803,15.2179768 81.4144923,19.9240168 C83.2969083,25.3359628 81.1791903,32.3950229 76.4731503,36.8657609 L74.5907343,38.5128749 Z M68.0022782,15.6885808 C68.2375802,18.0416008 69.1787882,21.3358288 70.5906002,23.6888488 C71.2965063,24.8653588 72.0024123,26.0418688 72.4730163,26.9830768 C73.4142243,28.3948889 74.1201303,30.0420029 75.2966403,31.6891169 C77.4143583,28.8654929 78.5908683,24.8653588 77.4143583,21.1005268 C76.4731503,18.0416008 73.4142243,15.6885808 70.5906002,15.2179768 C69.6493922,15.4532788 68.9434862,15.4532788 68.0022782,15.6885808 Z" id="Shape"></path>
                            <path d="M49.4134202,109.103475 C41.1778501,109.103475 33.8834881,106.750455 27.5303341,101.809113 C25.4126161,100.161999 23.2948981,98.2795831 21.4124821,96.1618651 L24.7067101,93.3382411 C26.3538241,95.2206571 28.0009381,96.8677711 30.1186561,98.2795831 C35.7659041,102.515019 42.3543601,104.632737 49.4134202,104.632737 C56.7077822,104.632737 63.0609362,102.515019 68.7081842,98.2795831 C70.5906002,96.8677711 72.4730163,95.2206571 74.1201303,93.3382411 L77.4143583,96.1618651 C75.5319423,98.2795831 73.6495263,100.161999 71.2965063,101.809113 C64.9433522,106.750455 57.4136882,109.103475 49.4134202,109.103475 Z" id="Path"></path>
                        </g>
                    </g>
                </g>
            </g>
        </g>
    </g>
</svg>