<?xml version="1.0" encoding="UTF-8"?>
<svg width="235px" height="154px" viewBox="0 0 235 154" version="1.1" xmlns="http://www.w3.org/2000/svg" xmlns:xlink="http://www.w3.org/1999/xlink">
    <title>ikona_pomoc-01@1x</title>
    <g id="1920" stroke="none" stroke-width="1" fill="none" fill-rule="evenodd">
        <g id="1920_2" transform="translate(-1462.000000, -1720.000000)" fill-rule="nonzero">
            <g id="icon" transform="translate(159.637474, 1663.889005)">
                <g id="ikona_pomoc-01" transform="translate(1299.994797, 56.679163)">
                    <g id="ikona_x5F_pomoc" transform="translate(3.336938, 0.000000)">
                        <g id="Group" transform="translate(138.065793, 0.000000)" fill="#98DAC1">
                            <g transform="translate(0.000000, 85.583302)" id="Path">
                                <path d="M4.17117201,35.8720793 L0,35.8720793 C0,25.8612664 9.38513702,21.6900944 18.5617154,17.727481 C27.9468524,13.556309 36.7063137,9.59369562 36.7063137,0 L40.8774857,0 C40.8774857,12.3049574 29.8238799,17.3103638 20.2301842,21.4815358 C11.470723,25.2355906 4.17117201,28.5725283 4.17117201,35.8720793 Z"></path>
                                <path d="M95.519839,35.8720793 L91.348667,35.8720793 C91.348667,28.5725283 83.8405573,25.2355906 75.2896547,21.4815358 C65.6959591,17.1018052 54.6423533,12.3049574 54.6423533,0 L58.8135253,0 C58.8135253,9.59369562 67.5729865,13.556309 76.9581235,17.727481 C86.134702,21.6900944 95.519839,26.069825 95.519839,35.8720793 Z"></path>
                                <path d="M70.0756897,33.1608175 L25.4441492,33.1608175 C21.2729772,33.1608175 17.727481,30.6581143 16.0590122,26.9040594 L13.9734262,21.898653 L17.727481,20.2301842 L19.813067,25.2355906 C20.85586,27.5297352 22.941446,28.9896455 25.4441492,28.9896455 L69.8671311,28.9896455 C72.3698343,28.9896455 74.4554203,27.5297352 75.4982133,25.2355906 L77.5837993,20.2301842 L81.3378541,21.898653 L79.2522681,26.9040594 C77.7923579,30.6581143 74.0383031,33.1608175 70.0756897,33.1608175 Z"></path>
                            </g>
                            <path d="M47.7599195,89.5459149 C34.8292863,89.5459149 23.7756804,78.7008677 20.4387428,63.0589727 C16.684688,62.6418555 13.7648676,58.4706835 13.7648676,53.4652771 C13.7648676,48.4598707 16.4761294,44.4972573 20.2301842,43.8715815 C20.2301842,43.8715815 20.2301842,43.6630229 20.2301842,43.6630229 L20.6473014,43.6630229 C21.0644186,43.6630229 21.6900944,43.6630229 22.1072116,43.6630229 L22.1072116,43.8715815 L22.3157702,43.8715815 L21.6900944,41.994554 C35.0378449,38.2404992 47.7599195,28.2296864 51.3054157,25.1013074 L52.7653259,23.8499558 L54.0166775,25.309866 C57.1450565,28.6468036 59.4392011,32.4008584 61.1076699,36.5720304 C63.8189317,43.6630229 63.4018145,50.1283395 62.5675801,54.9251873 C65.6959591,53.0481599 69.8671311,49.7112223 71.3270413,45.1229331 L71.7441585,43.8715815 L72.9955101,43.8715815 C73.4126273,43.8715815 73.6211859,43.6630229 74.0383031,43.6630229 C78.2094751,43.6630229 81.5464127,47.8341949 81.5464127,53.4652771 C81.5464127,58.4706835 78.8351509,62.4332969 75.0810961,63.0589727 C71.7441585,78.9094263 60.6905527,89.5459149 47.7599195,89.5459149 Z M23.7756804,58.6792421 L24.1927976,60.7648281 C26.6955008,75.1553715 36.4977551,85.5833015 47.7599195,85.5833015 C59.0220839,85.5833015 68.8243381,75.1553715 71.3270413,60.7648281 L71.7441585,58.6792421 L74.0383031,59.0963593 C76.1238891,59.0963593 77.5837993,56.5936561 77.5837993,53.4652771 C77.5837993,50.9625739 76.3324477,48.6684293 74.8725375,48.0427535 C71.5355999,55.7594217 63.1932559,59.7220351 60.4819941,60.9733867 L56.3108221,62.6418555 L57.7707323,58.2621249 C59.0220839,54.2995115 60.6905527,46.5828433 57.5621737,38.0319406 C56.5193807,34.9035616 54.8509119,32.1922998 52.7653259,29.6895966 C47.3428023,34.0693272 36.4977551,41.994554 24.4013562,45.7486089 C24.4013562,45.9571675 24.4013562,46.1657261 24.4013562,46.1657261 L23.984239,48.2513121 L21.6900944,47.8341949 C19.813067,47.8341949 18.3531568,50.5454567 18.3531568,53.4652771 C18.3531568,56.3850975 20.0216256,59.0963593 21.898653,59.0963593 L23.7756804,58.6792421 Z" id="Shape"></path>
                            <path d="M15.0162192,50.5454567 C11.470723,44.9143745 10.2193714,37.6148234 11.6792816,30.523831 C13.9734262,18.6359908 24.6099148,8.62517799 36.2891965,7.16526779 C38.5833411,6.95670918 40.6689271,6.95670918 42.9630717,7.16526779 C43.1716303,5.49679898 44.0058647,4.03688878 45.0486577,2.99409578 C47.3428023,0.491392573 51.5139743,-0.551400429 56.1022635,0.282833973 C60.8991113,1.11706837 65.0702833,4.03688878 66.3216349,7.37382639 C66.9473107,8.83373659 66.9473107,10.2936468 66.5301935,11.9621156 C67.9901037,12.3792328 69.6585725,13.0049086 71.5355999,14.4648188 C78.2094751,19.2616666 82.1720885,27.395452 81.9635299,35.9463546 C81.9635299,37.823382 81.1292955,43.4544643 78.4180337,47.8341949 L74.8725375,45.5400503 C77.1666821,41.994554 77.7923579,37.1977062 77.7923579,35.737796 C78.0009165,28.8553622 74.6639789,21.7643698 69.0328967,17.8017564 C66.9473107,16.1332876 65.0702833,15.924729 63.4018145,15.7161704 L60.6905527,15.2990532 L61.9419043,12.79635 C62.3590215,11.753557 62.9846973,10.2936468 62.5675801,9.04229519 C61.7333457,7.16526779 59.0220839,5.28824038 55.4765877,4.66256458 C52.3482087,4.03688878 49.4283883,4.66256458 48.1770367,6.12247478 C47.3428023,6.95670918 46.9256851,8.20806079 47.1342437,9.87652959 L47.1342437,12.5877914 L44.4229819,11.9621156 C41.9202787,11.3364398 39.4175755,11.1278812 36.9148723,11.5449984 C26.9040594,12.79635 17.727481,21.3472526 15.641895,31.566624 C14.3905434,37.6148234 15.4333364,43.6630229 18.3531568,48.4598707 L15.0162192,50.5454567 Z" id="Path"></path>
                        </g>
                        <g id="Group" transform="translate(0.000000, 36.780589)" fill="#566478">
                            <path d="M126.59507,78.6265923 L2.2941446,78.6265923 C1.042793,78.6265923 0,77.5837993 0,76.3324477 C0,75.0810961 1.042793,74.0383031 2.2941446,74.0383031 L126.59507,74.0383031 C127.846422,74.0383031 128.889215,75.0810961 128.889215,76.3324477 C128.889215,77.5837993 127.846422,78.6265923 126.59507,78.6265923 Z" id="Path"></path>
                            <path d="M72.5783929,101.568038 L56.3108221,101.568038 C55.0594705,101.568038 54.0166775,100.525245 54.0166775,99.2738938 L54.0166775,88.4288466 C54.0166775,87.177495 55.0594705,86.134702 56.3108221,86.134702 L72.5783929,86.134702 C73.8297445,86.134702 74.8725375,87.177495 74.8725375,88.4288466 L74.8725375,99.2738938 C74.8725375,100.525245 73.8297445,101.568038 72.5783929,101.568038 Z M58.6049667,97.1883078 L70.4928069,97.1883078 L70.4928069,90.7229912 L58.6049667,90.7229912 L58.6049667,97.1883078 Z" id="Shape"></path>
                            <path d="M84.049116,115.750023 L45.0486577,115.750023 C44.2144233,115.750023 43.5887475,115.332906 43.1716303,114.70723 C42.7545131,114.081554 42.7545131,113.24732 43.1716303,112.413086 L51.5139743,98.2311008 C51.9310915,97.605425 52.5567673,97.1883078 53.3910017,97.1883078 L75.9153305,97.1883078 C76.7495649,97.1883078 77.3752407,97.605425 77.7923579,98.2311008 L86.134702,112.413086 C86.5518192,113.038761 86.5518192,113.872996 86.134702,114.70723 C85.5090262,115.332906 84.6747918,115.750023 84.049116,115.750023 Z M48.8027125,111.370293 L80.0865025,111.370293 L74.4554203,101.568038 L54.6423533,101.568038 L48.8027125,111.370293 Z" id="Shape"></path>
                            <path d="M97.8139836,115.750023 L31.0752315,115.750023 C29.8238799,115.750023 28.7810869,114.70723 28.7810869,113.455879 C28.7810869,112.204527 29.8238799,111.161734 31.0752315,111.161734 L97.8139836,111.161734 C99.0653352,111.161734 100.108128,112.204527 100.108128,113.455879 C100.108128,114.915789 99.0653352,115.750023 97.8139836,115.750023 Z" id="Path"></path>
                            <path d="M118.878402,90.7229912 L10.2193714,90.7229912 C4.58828921,90.7229912 0.2085586,86.134702 0.2085586,80.7121783 L0.2085586,10.2193714 C0.2085586,4.58828921 4.79684781,0.2085586 10.2193714,0.2085586 L17.727481,0.2085586 C18.9788326,0.2085586 20.0216256,1.2513516 20.0216256,2.5027032 C20.0216256,3.75405481 18.9788326,4.79684781 17.727481,4.79684781 L10.2193714,4.79684781 C7.09099241,4.58828921 4.58828921,7.09099241 4.58828921,10.2193714 L4.58828921,80.5036197 C4.58828921,83.6319987 7.09099241,86.134702 10.2193714,86.134702 L118.878402,86.134702 C122.006781,86.134702 124.509484,83.6319987 124.509484,80.5036197 L124.509484,10.2193714 C124.509484,7.09099241 122.006781,4.58828921 118.878402,4.58828921 L111.370293,4.58828921 C110.118941,4.58828921 109.076148,3.54549621 109.076148,2.2941446 C109.076148,1.042793 110.118941,0 111.370293,0 L118.878402,0 C124.509484,0 128.889215,4.58828921 128.889215,10.0108128 L128.889215,80.2950611 C128.889215,86.134702 124.300926,90.7229912 118.878402,90.7229912 Z" id="Path"></path>
                        </g>
                        <path d="M36.0806379,21.9729284 C35.6635207,22.3900456 35.4549621,22.8071628 35.0378449,23.22428 C32.3265831,25.7269832 30.2409971,30.9409482 31.4923487,37.6148234 C36.9148723,65.9787931 60.8991113,87.6688875 89.6801982,90.1715907 C90.305874,90.1715907 90.9315498,90.1715907 91.5572256,90.1715907 C94.8941632,90.1715907 98.0225422,89.3373563 100.525245,87.8774461 C101.776597,87.2517703 102.81939,86.4175359 103.653624,85.3747429 L106.156328,82.6634811 C110.953175,77.2409575 110.536058,69.1071721 105.322093,64.3103243 L101.150921,60.5562695 C98.648218,58.4706835 95.7283976,57.2193319 92.39146,57.2193319 C88.6374052,57.2193319 85.091909,58.8878007 82.7977643,61.5990625 L80.2950611,64.3103243 C79.2522681,65.3531173 78.6265923,66.6044689 78.0009165,67.8558205 C68.1986623,63.6846485 60.0648769,56.3850975 55.0594705,46.7914019 C56.9364979,45.9571675 58.6049667,44.9143745 59.8563183,43.4544643 L62.3590215,40.7432024 C64.6531661,38.2404992 65.9045177,34.9035616 65.6959591,31.3580654 C65.4874005,27.8125692 64.0274903,24.6841902 61.3162285,22.3900456 L57.1450565,18.6359908 C54.6423533,16.5504048 51.7225329,15.2990532 48.3855953,15.2990532 C44.6315405,15.2990532 41.0860443,16.967522 38.7918997,19.6787838 L36.0806379,21.9729284 Z M41.0860443,21.3472526 C42.9630717,19.2616666 45.4657749,18.2188736 48.1770367,18.2188736 C50.6797399,18.2188736 52.9738845,19.053108 54.6423533,20.7215768 L58.8135253,24.4756316 C60.6905527,26.1441004 61.9419043,28.6468036 61.9419043,31.1495068 C62.1504629,33.65221 61.1076699,36.1549132 59.4392011,38.2404992 L56.9364979,40.951761 C56.9364979,40.951761 56.9364979,40.951761 56.9364979,40.951761 C55.6851463,42.2031126 54.2252361,43.2459056 52.5567673,43.6630229 L51.9310915,43.8715815 C51.5139743,44.0801401 51.0968571,44.2886987 50.8882985,44.9143745 C50.6797399,45.3314917 50.6797399,45.9571675 50.8882985,46.3742847 L51.3054157,46.9999605 C56.7279393,58.0535663 66.1130763,66.6044689 77.5837993,70.9841995 L78.2094751,71.1927581 C78.6265923,71.4013167 79.0437095,71.4013167 79.4608267,71.1927581 C79.8779439,70.9841995 80.2950611,70.5670823 80.2950611,70.1499651 L80.5036197,69.5242893 C80.9207369,68.2729377 81.5464127,67.0215861 82.5892057,66.1873517 L85.091909,63.4760899 C86.9689364,61.3905039 89.4716396,60.3477109 92.1829014,60.3477109 C94.6856046,60.3477109 96.9797492,61.1819453 98.648218,62.8504141 L102.81939,66.6044689 C106.782003,70.1499651 106.990562,76.4067231 103.445066,80.3693365 L100.942363,83.0805983 C100.316687,83.9148327 99.4824524,84.5405085 98.4396594,84.9576257 C96.1455148,86.4175359 93.0171358,87.0432117 89.6801982,86.8346531 C62.3590215,84.3319499 39.6261341,63.8932071 34.4121691,36.9891476 C33.3693761,31.3580654 35.4549621,27.1868934 37.1234309,25.7269832 C37.1234309,25.7269832 37.3319895,25.7269832 37.3319895,25.5184246 L37.5405481,25.309866 C37.5405481,25.309866 37.5405481,25.1013074 37.7491067,25.1013074 C37.9576653,24.6841902 38.1662239,24.4756316 38.5833411,24.0585144 L41.0860443,21.3472526 Z" id="XMLID_10306_" stroke="#98DAC1" stroke-width="1.3520053" fill="#98DAC1"></path>
                    </g>
                </g>
            </g>
        </g>
    </g>
</svg>