<?xml version="1.0" encoding="UTF-8"?>
<svg width="126px" height="149px" viewBox="0 0 126 149" version="1.1" xmlns="http://www.w3.org/2000/svg" xmlns:xlink="http://www.w3.org/1999/xlink">
    <title>ikona_samopoznanie-01@1x</title>
    <g id="1920" stroke="none" stroke-width="1" fill="none" fill-rule="evenodd">
        <g id="1920_2" transform="translate(-1104.000000, -1726.000000)" fill-rule="nonzero">
            <g id="icon" transform="translate(159.637474, 1663.889005)">
                <g id="ikona_samopoznanie-01" transform="translate(890.076520, 62.523810)">
                    <g id="ikona_x5F_samopoznanie" transform="translate(54.633774, 0.000000)">
                        <path d="M14.0661583,120.275847 L11.0082978,120.275847 C7.33886522,120.275847 4.48486208,117.217986 4.48486208,113.752411 L4.48486208,95.6091052 L4.48486208,85.0085221 L4.48486208,11.0082978 C4.48486208,7.33886522 7.54272258,4.48486208 11.0082978,4.48486208 L87.4548105,4.48486208 C91.1242431,4.48486208 93.9782462,7.54272258 93.9782462,11.0082978 L93.9782462,12.4352994 L98.259251,12.4352994 L98.259251,11.0082978 C98.259251,4.89257681 93.3666741,0 87.2509531,0 L11.0082978,0 C4.89257681,0 0,4.89257681 0,11.0082978 L0,85.0085221 L0,95.6091052 L0,113.548553 C0,119.664275 4.89257681,124.556851 11.0082978,124.556851 L14.0661583,124.556851 L14.0661583,120.275847 Z" id="Path" fill="#566478"></path>
                        <path d="M27.1130298,131.895717 L24.0551693,131.895717 C20.3857367,131.895717 17.5317336,128.837856 17.5317336,125.372281 L17.5317336,107.432832 L17.5317336,96.8322494 L17.5317336,22.6281678 C17.5317336,18.9587351 20.5895941,16.104732 24.0551693,16.104732 L100.501682,16.104732 C104.171115,16.104732 107.025118,19.1625925 107.025118,22.6281678 L107.025118,24.0551693 L111.306122,24.0551693 L111.306122,22.6281678 C111.306122,16.5124467 106.413546,11.6198699 100.297825,11.6198699 L24.0551693,11.6198699 C17.9394483,11.6198699 13.0468715,16.5124467 13.0468715,22.6281678 L13.0468715,96.628392 L13.0468715,107.228975 L13.0468715,125.168423 C13.0468715,131.284144 17.9394483,136.176721 24.0551693,136.176721 L27.1130298,136.176721 L27.1130298,131.895717 Z" id="Path" fill="#98DAC1"></path>
                        <g id="Group" transform="translate(26.297600, 23.851312)">
                            <path d="M55.8569186,124.556851 C55.4492039,124.556851 55.2453465,124.556851 54.8376318,124.352994 C54.2260597,123.945279 53.6144876,123.333707 53.6144876,122.518278 L53.6144876,104.374972 C53.6144876,98.259251 58.5070644,93.3666741 64.6227854,93.3666741 L96.2206773,93.3666741 C97.2399641,93.3666741 98.0553936,93.9782462 98.259251,94.9975331 C98.4631083,95.8129625 98.259251,96.8322494 97.4438215,97.4438215 L57.0800628,124.149137 C56.6723481,124.556851 56.2646333,124.556851 55.8569186,124.556851 Z M64.6227854,97.6476789 C60.9533528,97.6476789 58.0993496,100.705539 58.0993496,104.171115 L58.0993496,118.237273 L89.2895268,97.4438215 L64.6227854,97.4438215 L64.6227854,97.6476789 Z" id="Shape" fill="#566478"></path>
                            <path d="M78.0773716,27.5207446 L20.3857367,27.5207446 C19.1625925,27.5207446 18.1433057,26.5014577 18.1433057,25.2783135 L18.1433057,15.9008746 C18.1433057,14.6777304 19.1625925,13.6584436 20.3857367,13.6584436 L78.0773716,13.6584436 C79.3005158,13.6584436 80.3198026,14.6777304 80.3198026,15.9008746 L80.3198026,25.2783135 C80.3198026,26.5014577 79.3005158,27.5207446 78.0773716,27.5207446 Z M22.6281678,23.2397399 L76.0387979,23.2397399 L76.0387979,18.1433057 L22.6281678,18.1433057 L22.6281678,23.2397399 Z" id="Shape" fill="#566478"></path>
                            <path d="M58.0993496,39.1406145 L40.5676161,39.1406145 C39.3444719,39.1406145 38.325185,38.1213277 38.325185,36.8981834 C38.325185,35.6750392 39.3444719,34.6557524 40.5676161,34.6557524 L58.0993496,34.6557524 C59.3224938,34.6557524 60.3417807,35.6750392 60.3417807,36.8981834 C60.1379233,38.325185 59.3224938,39.1406145 58.0993496,39.1406145 Z" id="Path" fill="#566478"></path>
                            <path d="M49.3334828,88.6779547 L20.9973088,88.6779547 C19.5703072,88.6779547 18.347163,87.6586679 18.347163,86.4355237 C18.347163,85.2123795 19.5703072,84.1930926 20.9973088,84.1930926 L49.3334828,84.1930926 C50.7604844,84.1930926 51.9836286,85.2123795 51.9836286,86.4355237 C51.9836286,87.6586679 50.7604844,88.6779547 49.3334828,88.6779547 Z" id="Path" fill="#566478"></path>
                            <path d="M55.8569186,124.556851 L11.0082978,124.556851 C4.89257681,124.556851 0,119.664275 0,113.548553 L0,85.0085221 C0,83.7853779 1.01928684,82.7660911 2.24243104,82.7660911 C3.46557524,82.7660911 4.48486208,83.7853779 4.48486208,85.0085221 L4.48486208,113.548553 C4.48486208,117.217986 7.54272258,120.071989 11.0082978,120.071989 L55.2453465,120.071989 L94.1821036,94.1821036 L94.1821036,17.5317336 C94.1821036,16.3085894 95.2013904,15.2893025 96.4245346,15.2893025 C97.6476789,15.2893025 98.6669657,16.3085894 98.6669657,17.5317336 L98.6669657,95.4052478 C98.6669657,96.2206773 98.259251,96.8322494 97.6476789,97.2399641 L57.0800628,124.149137 C56.6723481,124.556851 56.2646333,124.556851 55.8569186,124.556851 Z" id="Path" fill="#566478"></path>
                            <path d="M2.24243104,97.8515362 C1.01928684,97.8515362 0,96.8322494 0,95.6091052 L0,11.0082978 C0,4.89257681 4.89257681,0 11.0082978,0 L87.4548105,0 C93.5705315,0 98.4631083,4.89257681 98.4631083,11.0082978 L98.4631083,20.7934514 C98.4631083,22.0165956 97.4438215,23.0358825 96.2206773,23.0358825 C94.9975331,23.0358825 93.9782462,22.0165956 93.9782462,20.7934514 L93.9782462,11.2121552 C93.9782462,7.54272258 90.9203857,4.68871944 87.4548105,4.68871944 L11.0082978,4.68871944 C7.33886522,4.68871944 4.48486208,7.74657995 4.48486208,11.2121552 L4.48486208,95.8129625 C4.48486208,97.0361068 3.46557524,97.8515362 2.24243104,97.8515362 Z" id="Path" fill="#566478"></path>
                            <path d="M48.9257681,76.8542274 L20.7934514,76.8542274 C19.3664499,76.8542274 18.1433057,75.8349406 18.1433057,74.6117964 C18.1433057,73.3886522 19.3664499,72.3693653 20.7934514,72.3693653 L49.1296255,72.3693653 C50.556627,72.3693653 51.7797712,73.3886522 51.7797712,74.6117964 C51.5759139,76.0387979 50.556627,76.8542274 48.9257681,76.8542274 Z" id="Path" fill="#566478"></path>
                            <path d="M49.1296255,62.3803543 L20.7934514,62.3803543 C19.3664499,62.3803543 18.1433057,61.3610675 18.1433057,60.1379233 C18.1433057,58.9147791 19.3664499,57.8954923 20.7934514,57.8954923 L49.1296255,57.8954923 C50.556627,57.8954923 51.7797712,58.9147791 51.7797712,60.1379233 C51.7797712,61.3610675 50.556627,62.3803543 49.1296255,62.3803543 Z" id="Path" fill="#566478"></path>
                            <path d="M48.9257681,50.556627 L20.5895941,50.556627 C19.1625925,50.556627 17.9394483,49.5373402 17.9394483,48.314196 C17.9394483,47.0910518 19.1625925,46.071765 20.5895941,46.071765 L48.9257681,46.071765 C50.3527697,46.071765 51.5759139,47.0910518 51.5759139,48.314196 C51.5759139,49.7411976 50.3527697,50.556627 48.9257681,50.556627 Z" id="Path" fill="#566478"></path>
                            <path d="M75.8349406,66.0497869 C70.1269343,66.0497869 65.6420722,61.5649249 65.6420722,55.8569186 C65.6420722,50.1489123 70.1269343,45.6640502 75.8349406,45.6640502 C76.2426553,45.6640502 76.8542274,45.6640502 77.2619421,45.6640502 C77.8735142,45.6640502 78.281229,46.2756223 78.281229,46.8871944 C78.281229,47.4987665 77.6696569,47.9064813 77.0580848,47.9064813 C76.65037,47.9064813 76.2426553,47.9064813 76.0387979,47.9064813 C71.7577932,47.9064813 68.0883606,51.3720565 68.0883606,55.8569186 C68.0883606,60.1379233 71.5539359,63.8073559 76.0387979,63.8073559 C80.3198026,63.8073559 83.9892353,60.3417807 83.9892353,55.8569186 C83.9892353,54.8376318 83.7853779,53.8183449 83.3776632,52.7990581 C83.1738058,52.187486 83.3776632,51.5759139 83.9892353,51.3720565 C84.6008074,51.1681991 85.2123795,51.3720565 85.4162368,51.9836286 C86.0278089,53.2067728 86.2316663,54.6337744 86.2316663,56.060776 C86.0278089,61.5649249 81.5429468,66.0497869 75.8349406,66.0497869 Z" id="Path" fill="#98DAC1"></path>
                            <path d="M75.8349406,60.3417807 C75.4272258,60.3417807 75.0195111,60.1379233 74.8156537,59.7302086 L70.1269343,48.7219107 C69.9230769,48.1103386 70.1269343,47.4987665 70.7385064,47.2949092 C71.3500785,47.0910518 71.9616506,47.2949092 72.165508,47.9064813 L75.6310832,56.060776 C76.8542274,52.7990581 79.5043732,47.4987665 83.9892353,45.0524781 C84.6008074,44.6447634 85.2123795,44.8486208 85.6200942,45.4601929 C86.0278089,46.071765 85.8239516,46.6833371 85.2123795,47.0910518 C79.3005158,50.556627 77.0580848,59.7302086 77.0580848,59.7302086 C76.8542274,59.9340659 76.4465127,60.3417807 75.8349406,60.3417807 C75.8349406,60.3417807 75.8349406,60.3417807 75.8349406,60.3417807 Z" id="Path" fill="#98DAC1"></path>
                            <path d="M76.2426553,89.9010989 C70.534649,89.9010989 66.0497869,85.4162368 66.0497869,79.7082305 C66.0497869,74.0002243 70.534649,69.5153622 76.2426553,69.5153622 C76.65037,69.5153622 77.2619421,69.5153622 77.6696569,69.5153622 C78.281229,69.5153622 78.6889437,70.1269343 78.6889437,70.7385064 C78.6889437,71.3500785 78.0773716,71.7577932 77.4657995,71.7577932 C77.0580848,71.7577932 76.65037,71.7577932 76.4465127,71.7577932 C72.165508,71.7577932 68.4960754,75.2233685 68.4960754,79.7082305 C68.4960754,83.9892353 71.9616506,87.6586679 76.4465127,87.6586679 C80.7275174,87.6586679 84.39695,84.1930926 84.39695,79.7082305 C84.39695,78.6889437 84.1930926,77.6696569 83.7853779,76.65037 C83.5815205,76.0387979 83.7853779,75.4272258 84.39695,75.2233685 C85.0085221,75.0195111 85.6200942,75.2233685 85.8239516,75.8349406 C86.4355237,77.0580848 86.639381,78.4850863 86.639381,79.9120879 C86.4355237,85.2123795 81.7468042,89.9010989 76.2426553,89.9010989 Z" id="Path" fill="#98DAC1"></path>
                            <path d="M76.0387979,84.1930926 C75.6310832,84.1930926 75.2233685,83.9892353 75.0195111,83.5815205 L70.3307917,72.5732227 C70.1269343,71.9616506 70.3307917,71.3500785 70.9423638,71.1462211 C71.5539359,70.9423638 72.165508,71.1462211 72.3693653,71.7577932 L75.8349406,79.9120879 C77.0580848,76.65037 79.7082305,71.3500785 84.1930926,68.9037901 C84.8046647,68.4960754 85.4162368,68.6999327 85.8239516,69.3115048 C86.2316663,69.9230769 86.0278089,70.534649 85.4162368,70.9423638 C79.5043732,74.407939 77.2619421,83.5815205 77.2619421,83.5815205 C77.0580848,83.7853779 76.65037,83.9892353 76.0387979,84.1930926 C76.2426553,84.1930926 76.0387979,84.1930926 76.0387979,84.1930926 Z" id="Path" fill="#98DAC1"></path>
                        </g>
                    </g>
                </g>
            </g>
        </g>
    </g>
</svg>